<svg width="24" height="24" viewBox="0 0 24 24" fill="none" xmlns="http://www.w3.org/2000/svg">
<g clip-path="url(#clip0_5515_12295)">
<mask id="path-1-inside-1_5515_12295" fill="white">
<path d="M19 2H18V1C18 0.734784 17.8946 0.48043 17.7071 0.292893C17.5196 0.105357 17.2652 0 17 0C16.7348 0 16.4804 0.105357 16.2929 0.292893C16.1054 0.48043 16 0.734784 16 1V2H8V1C8 0.734784 7.89464 0.48043 7.70711 0.292893C7.51957 0.105357 7.26522 0 7 0C6.73478 0 6.48043 0.105357 6.29289 0.292893C6.10536 0.48043 6 0.734784 6 1V2H5C3.67441 2.00159 2.40356 2.52888 1.46622 3.46622C0.528882 4.40356 0.00158786 5.67441 0 7L0 19C0.00158786 20.3256 0.528882 21.5964 1.46622 22.5338C2.40356 23.4711 3.67441 23.9984 5 24H19C20.3256 23.9984 21.5964 23.4711 22.5338 22.5338C23.4711 21.5964 23.9984 20.3256 24 19V7C23.9984 5.67441 23.4711 4.40356 22.5338 3.46622C21.5964 2.52888 20.3256 2.00159 19 2ZM2 7C2 6.20435 2.31607 5.44129 2.87868 4.87868C3.44129 4.31607 4.20435 4 5 4H19C19.7956 4 20.5587 4.31607 21.1213 4.87868C21.6839 5.44129 22 6.20435 22 7V8H2V7ZM19 22H5C4.20435 22 3.44129 21.6839 2.87868 21.1213C2.31607 20.5587 2 19.7956 2 19V10H22V19C22 19.7956 21.6839 20.5587 21.1213 21.1213C20.5587 21.6839 19.7956 22 19 22Z"/>
</mask>
<path d="M19 2H18V1C18 0.734784 17.8946 0.48043 17.7071 0.292893C17.5196 0.105357 17.2652 0 17 0C16.7348 0 16.4804 0.105357 16.2929 0.292893C16.1054 0.48043 16 0.734784 16 1V2H8V1C8 0.734784 7.89464 0.48043 7.70711 0.292893C7.51957 0.105357 7.26522 0 7 0C6.73478 0 6.48043 0.105357 6.29289 0.292893C6.10536 0.48043 6 0.734784 6 1V2H5C3.67441 2.00159 2.40356 2.52888 1.46622 3.46622C0.528882 4.40356 0.00158786 5.67441 0 7L0 19C0.00158786 20.3256 0.528882 21.5964 1.46622 22.5338C2.40356 23.4711 3.67441 23.9984 5 24H19C20.3256 23.9984 21.5964 23.4711 22.5338 22.5338C23.4711 21.5964 23.9984 20.3256 24 19V7C23.9984 5.67441 23.4711 4.40356 22.5338 3.46622C21.5964 2.52888 20.3256 2.00159 19 2ZM2 7C2 6.20435 2.31607 5.44129 2.87868 4.87868C3.44129 4.31607 4.20435 4 5 4H19C19.7956 4 20.5587 4.31607 21.1213 4.87868C21.6839 5.44129 22 6.20435 22 7V8H2V7ZM19 22H5C4.20435 22 3.44129 21.6839 2.87868 21.1213C2.31607 20.5587 2 19.7956 2 19V10H22V19C22 19.7956 21.6839 20.5587 21.1213 21.1213C20.5587 21.6839 19.7956 22 19 22Z" fill="#3199DD"/>
<path d="M18 2H-3.33333V23.3333H18V2ZM17 0V-21.3333V0ZM16 2V23.3333H37.3333V2H16ZM8 2H-13.3333V23.3333H8V2ZM7 0V-21.3333V0ZM6 2V23.3333H27.3333V2H6ZM5 2V-19.3333H4.98722L4.97445 -19.3333L5 2ZM0 7L-21.3333 6.97445L-21.3333 6.98722V7H0ZM0 19H-21.3333V19.0128L-21.3333 19.0256L0 19ZM5 24L4.97445 45.3333L4.98722 45.3333H5V24ZM19 24V45.3333H19.0128L19.0256 45.3333L19 24ZM24 19L45.3333 19.0256L45.3333 19.0128V19H24ZM24 7H45.3333V6.98722L45.3333 6.97445L24 7ZM2 7H-19.3333H2ZM22 7H43.3333H22ZM22 8V29.3333H43.3333V8H22ZM2 8H-19.3333V29.3333H2V8ZM19 22V43.3333V22ZM5 22V43.3333V22ZM2 19H-19.3333H2ZM2 10V-11.3333H-19.3333V10H2ZM22 10H43.3333V-11.3333H22V10ZM22 19H43.3333H22ZM19 -19.3333H18V23.3333H19V-19.3333ZM39.3333 2V1H-3.33333V2H39.3333ZM39.3333 1C39.3333 -4.92313 36.9804 -10.6037 32.7921 -14.7921L2.62216 15.3778C-1.19111 11.5646 -3.33333 6.39269 -3.33333 1H39.3333ZM32.7921 -14.7921C28.6037 -18.9804 22.9232 -21.3333 17 -21.3333V21.3333C11.6073 21.3333 6.43541 19.1911 2.62216 15.3778L32.7921 -14.7921ZM17 -21.3333C11.0768 -21.3333 5.39627 -18.9804 1.20795 -14.7921L31.3778 15.3778C27.5646 19.1911 22.3927 21.3333 17 21.3333V-21.3333ZM1.20795 -14.7921C-2.98039 -10.6037 -5.33333 -4.92313 -5.33333 1H37.3333C37.3333 6.39269 35.1911 11.5646 31.3778 15.3778L1.20795 -14.7921ZM-5.33333 1V2H37.3333V1H-5.33333ZM16 -19.3333H8V23.3333H16V-19.3333ZM29.3333 2V1H-13.3333V2H29.3333ZM29.3333 1C29.3333 -4.92318 26.9804 -10.6037 22.7921 -14.7921L-7.37784 15.3778C-11.1911 11.5646 -13.3333 6.39275 -13.3333 1H29.3333ZM22.7921 -14.7921C18.6037 -18.9804 12.9232 -21.3333 7 -21.3333V21.3333C1.60726 21.3333 -3.5646 19.1911 -7.37784 15.3778L22.7921 -14.7921ZM7 -21.3333C1.07683 -21.3333 -4.60374 -18.9804 -8.79205 -14.7921L21.3778 15.3778C17.5646 19.1911 12.3927 21.3333 7 21.3333V-21.3333ZM-8.79205 -14.7921C-12.9804 -10.6037 -15.3333 -4.92318 -15.3333 1H27.3333C27.3333 6.39275 25.1911 11.5646 21.3778 15.3778L-8.79205 -14.7921ZM-15.3333 1V2H27.3333V1H-15.3333ZM6 -19.3333H5V23.3333H6V-19.3333ZM4.97445 -19.3333C-2.00024 -19.325 -8.68687 -16.5506 -13.6187 -11.6187L16.5512 18.5512C13.494 21.6083 9.34905 23.3281 5.02555 23.3333L4.97445 -19.3333ZM-13.6187 -11.6187C-18.5506 -6.68687 -21.325 -0.00024294 -21.3333 6.97445L21.3333 7.02555C21.3281 11.3491 19.6083 15.494 16.5512 18.5512L-13.6187 -11.6187ZM-21.3333 7V19H21.3333V7H-21.3333ZM-21.3333 19.0256C-21.325 26.0002 -18.5506 32.6869 -13.6187 37.6187L16.5512 7.44884C19.6083 10.506 21.3281 14.651 21.3333 18.9744L-21.3333 19.0256ZM-13.6187 37.6187C-8.68686 42.5506 -2.00023 45.325 4.97445 45.3333L5.02555 2.66668C9.34904 2.67186 13.494 4.39165 16.5512 7.44884L-13.6187 37.6187ZM5 45.3333H19V2.66667H5V45.3333ZM19.0256 45.3333C26.0002 45.325 32.6869 42.5506 37.6187 37.6187L7.44884 7.44884C10.506 4.39165 14.651 2.67186 18.9744 2.66668L19.0256 45.3333ZM37.6187 37.6187C42.5506 32.6869 45.325 26.0002 45.3333 19.0256L2.66668 18.9744C2.67186 14.651 4.39165 10.506 7.44884 7.44884L37.6187 37.6187ZM45.3333 19V7H2.66667V19H45.3333ZM45.3333 6.97445C45.325 -0.000232516 42.5506 -6.68687 37.6187 -11.6187L7.44884 18.5512C4.39165 15.494 2.67186 11.349 2.66668 7.02555L45.3333 6.97445ZM37.6187 -11.6187C32.6869 -16.5506 26.0002 -19.325 19.0256 -19.3333L18.9744 23.3333C14.651 23.3281 10.506 21.6083 7.44884 18.5512L37.6187 -11.6187ZM23.3333 7C23.3333 11.8623 21.4018 16.5255 17.9636 19.9636L-12.2063 -10.2063C-16.7696 -5.64288 -19.3333 0.546396 -19.3333 7H23.3333ZM17.9636 19.9636C14.5255 23.4018 9.8623 25.3333 5 25.3333V-17.3333C-1.4536 -17.3333 -7.64288 -14.7696 -12.2063 -10.2063L17.9636 19.9636ZM5 25.3333H19V-17.3333H5V25.3333ZM19 25.3333C14.1377 25.3333 9.47454 23.4018 6.03638 19.9636L36.2063 -10.2063C31.6429 -14.7697 25.4536 -17.3333 19 -17.3333V25.3333ZM6.03638 19.9636C2.5982 16.5255 0.666666 11.8623 0.666666 7H43.3333C43.3333 0.546405 40.7697 -5.64288 36.2063 -10.2063L6.03638 19.9636ZM0.666666 7V8H43.3333V7H0.666666ZM22 -13.3333H2V29.3333H22V-13.3333ZM23.3333 8V7H-19.3333V8H23.3333ZM19 0.666666H5V43.3333H19V0.666666ZM5 0.666666C9.8623 0.666666 14.5255 2.5982 17.9636 6.03638L-12.2063 36.2063C-7.64288 40.7697 -1.4536 43.3333 5 43.3333V0.666666ZM17.9636 6.03638C21.4018 9.47454 23.3333 14.1377 23.3333 19H-19.3333C-19.3333 25.4536 -16.7697 31.6429 -12.2063 36.2063L17.9636 6.03638ZM23.3333 19V10H-19.3333V19H23.3333ZM2 31.3333H22V-11.3333H2V31.3333ZM0.666666 10V19H43.3333V10H0.666666ZM0.666666 19C0.666666 14.1377 2.5982 9.47455 6.03638 6.03638L36.2063 36.2063C40.7697 31.6429 43.3333 25.4536 43.3333 19H0.666666ZM6.03638 6.03638C9.47455 2.5982 14.1377 0.666666 19 0.666666V43.3333C25.4536 43.3333 31.6429 40.7697 36.2063 36.2063L6.03638 6.03638Z" fill="#3199DD" mask="url(#path-1-inside-1_5515_12295)"/>
<path d="M12 16.5C12.8284 16.5 13.5 15.8284 13.5 15C13.5 14.1716 12.8284 13.5 12 13.5C11.1716 13.5 10.5 14.1716 10.5 15C10.5 15.8284 11.1716 16.5 12 16.5Z" fill="#3199DD"/>
<path d="M7 16.5C7.82843 16.5 8.5 15.8284 8.5 15C8.5 14.1716 7.82843 13.5 7 13.5C6.17157 13.5 5.5 14.1716 5.5 15C5.5 15.8284 6.17157 16.5 7 16.5Z" fill="#3199DD"/>
<path d="M17 16.5C17.8284 16.5 18.5 15.8284 18.5 15C18.5 14.1716 17.8284 13.5 17 13.5C16.1716 13.5 15.5 14.1716 15.5 15C15.5 15.8284 16.1716 16.5 17 16.5Z" fill="#3199DD"/>
</g>
<defs>
<clipPath id="clip0_5515_12295">
<rect width="24" height="24" fill="white"/>
</clipPath>
</defs>
</svg>
