<svg width="24" height="24" viewBox="0 0 24 24" fill="none" xmlns="http://www.w3.org/2000/svg">
<g clip-path="url(#clip0_5515_12299)">
<mask id="path-1-inside-1_5515_12299" fill="white">
<path d="M12 12C13.1867 12 14.3467 11.6481 15.3334 10.9888C16.3201 10.3295 17.0892 9.39246 17.5433 8.2961C17.9974 7.19975 18.1162 5.99335 17.8847 4.82946C17.6532 3.66558 17.0818 2.59648 16.2426 1.75736C15.4035 0.918247 14.3344 0.346802 13.1705 0.115291C12.0067 -0.11622 10.8003 0.00259972 9.7039 0.456726C8.60754 0.910851 7.67047 1.67989 7.01118 2.66658C6.35189 3.65328 6 4.81331 6 6C6.00159 7.59081 6.63424 9.11602 7.75911 10.2409C8.88399 11.3658 10.4092 11.9984 12 12ZM12 2C12.7911 2 13.5645 2.2346 14.2223 2.67412C14.8801 3.11365 15.3928 3.73836 15.6955 4.46927C15.9983 5.20017 16.0775 6.00444 15.9231 6.78036C15.7688 7.55629 15.3878 8.26902 14.8284 8.82843C14.269 9.38784 13.5563 9.7688 12.7804 9.92314C12.0044 10.0775 11.2002 9.99827 10.4693 9.69552C9.73836 9.39277 9.11365 8.88008 8.67412 8.22228C8.2346 7.56449 8 6.79113 8 6C8 4.93914 8.42143 3.92172 9.17157 3.17158C9.92172 2.42143 10.9391 2 12 2Z"/>
</mask>
<path d="M12 12C13.1867 12 14.3467 11.6481 15.3334 10.9888C16.3201 10.3295 17.0892 9.39246 17.5433 8.2961C17.9974 7.19975 18.1162 5.99335 17.8847 4.82946C17.6532 3.66558 17.0818 2.59648 16.2426 1.75736C15.4035 0.918247 14.3344 0.346802 13.1705 0.115291C12.0067 -0.11622 10.8003 0.00259972 9.7039 0.456726C8.60754 0.910851 7.67047 1.67989 7.01118 2.66658C6.35189 3.65328 6 4.81331 6 6C6.00159 7.59081 6.63424 9.11602 7.75911 10.2409C8.88399 11.3658 10.4092 11.9984 12 12ZM12 2C12.7911 2 13.5645 2.2346 14.2223 2.67412C14.8801 3.11365 15.3928 3.73836 15.6955 4.46927C15.9983 5.20017 16.0775 6.00444 15.9231 6.78036C15.7688 7.55629 15.3878 8.26902 14.8284 8.82843C14.269 9.38784 13.5563 9.7688 12.7804 9.92314C12.0044 10.0775 11.2002 9.99827 10.4693 9.69552C9.73836 9.39277 9.11365 8.88008 8.67412 8.22228C8.2346 7.56449 8 6.79113 8 6C8 4.93914 8.42143 3.92172 9.17157 3.17158C9.92172 2.42143 10.9391 2 12 2Z" fill="#3199DD"/>
<path d="M12 12L11.9787 33.3333L11.9893 33.3333H12L12 12ZM6 6H-15.3333V6.01065L-15.3333 6.0213L6 6ZM12 33.3333C17.406 33.3333 22.6906 31.7303 27.1856 28.7268L3.48126 -6.7492C6.00281 -8.43404 8.96735 -9.33333 12 -9.33333L12 33.3333ZM27.1856 28.7268C31.6805 25.7234 35.1839 21.4545 37.2527 16.46L-2.16615 0.132189C-1.0056 -2.66962 0.95971 -5.06435 3.48126 -6.7492L27.1856 28.7268ZM37.2527 16.46C39.3215 11.4655 39.8628 5.96968 38.8081 0.667534L-3.03871 8.99139C-3.63035 6.01701 -3.3267 2.93399 -2.16615 0.132189L37.2527 16.46ZM38.8081 0.667534C37.7535 -4.63461 35.1502 -9.50495 31.3276 -13.3276L1.1577 16.8423C-0.98671 14.6979 -2.44707 11.9658 -3.03871 8.99139L38.8081 0.667534ZM31.3276 -13.3276C27.5049 -17.1502 22.6346 -19.7535 17.3325 -20.8081L9.00862 21.0387C6.03425 20.4471 3.30211 18.9867 1.1577 16.8423L31.3276 -13.3276ZM17.3325 -20.8081C12.0303 -21.8628 6.5345 -21.3215 1.53999 -19.2527L17.8678 20.1662C15.066 21.3267 11.983 21.6304 9.00862 21.0387L17.3325 -20.8081ZM1.53999 -19.2527C-3.45452 -17.1839 -7.72341 -13.6805 -10.7268 -9.18559L24.7492 14.5187C23.0644 17.0403 20.6696 19.0056 17.8678 20.1662L1.53999 -19.2527ZM-10.7268 -9.18559C-13.7303 -4.69064 -15.3333 0.593981 -15.3333 6H27.3333C27.3333 9.03265 26.434 11.9972 24.7492 14.5187L-10.7268 -9.18559ZM-15.3333 6.0213C-15.3261 13.2627 -12.4463 20.2054 -7.32583 25.3258L22.8441 -4.84406C25.7147 -1.97337 27.3293 1.91894 27.3333 5.9787L-15.3333 6.0213ZM-7.32583 25.3258C-2.2054 30.4463 4.73732 33.3261 11.9787 33.3333L12.0213 -9.33332C16.0811 -9.32927 19.9734 -7.71474 22.8441 -4.84406L-7.32583 25.3258ZM12 23.3333C8.57179 23.3333 5.22057 22.3168 2.37012 20.4121L26.0744 -15.0639C21.9084 -17.8476 17.0105 -19.3333 12 -19.3333L12 23.3333ZM2.37012 20.4121C-0.480328 18.5075 -2.70199 15.8004 -4.01391 12.6332L35.4049 -3.69464C33.4875 -8.32371 30.2405 -12.2802 26.0744 -15.0639L2.37012 20.4121ZM-4.01391 12.6332C-5.32583 9.46593 -5.66909 5.98077 -5.00028 2.61844L36.8466 10.9423C37.8241 6.0281 37.3224 0.934417 35.4049 -3.69464L-4.01391 12.6332ZM-5.00028 2.61844C-4.33147 -0.743902 -2.68063 -3.83241 -0.256516 -6.25652L29.9134 23.9134C33.4563 20.3704 35.8691 15.8565 36.8466 10.9423L-5.00028 2.61844ZM-0.256516 -6.25652C2.16759 -8.68063 5.2561 -10.3315 8.61844 -11.0003L16.9423 30.8466C21.8565 29.8691 26.3704 27.4563 29.9134 23.9134L-0.256516 -6.25652ZM8.61844 -11.0003C11.9808 -11.6691 15.4659 -11.3258 18.6332 -10.0139L2.30535 29.405C6.93442 31.3224 12.0281 31.8241 16.9423 30.8466L8.61844 -11.0003ZM18.6332 -10.0139C21.8004 -8.70198 24.5075 -6.48032 26.4121 -3.62988L-9.0639 20.0744C-6.28024 24.2405 -2.32373 27.4875 2.30535 29.405L18.6332 -10.0139ZM26.4121 -3.62988C28.3167 -0.779437 29.3333 2.57178 29.3333 6H-13.3333C-13.3333 11.0105 -11.8476 15.9084 -9.0639 20.0744L26.4121 -3.62988ZM29.3333 6C29.3333 10.5971 27.5072 15.0059 24.2565 18.2565L-5.91337 -11.9134C-10.6643 -7.16245 -13.3333 -0.718812 -13.3333 6H29.3333ZM24.2565 18.2565C21.0059 21.5072 16.5971 23.3333 12 23.3333L12 -19.3333C5.28118 -19.3333 -1.16245 -16.6643 -5.91337 -11.9134L24.2565 18.2565Z" fill="#3199DD" mask="url(#path-1-inside-1_5515_12299)"/>
<path d="M12 14.001C9.61386 14.0036 7.32622 14.9527 5.63896 16.6399C3.95171 18.3272 3.00265 20.6148 3 23.001C3 23.2662 3.10536 23.5205 3.29289 23.7081C3.48043 23.8956 3.73478 24.001 4 24.001C4.26522 24.001 4.51957 23.8956 4.70711 23.7081C4.89464 23.5205 5 23.2662 5 23.001C5 21.1445 5.7375 19.364 7.05025 18.0512C8.36301 16.7385 10.1435 16.001 12 16.001C13.8565 16.001 15.637 16.7385 16.9497 18.0512C18.2625 19.364 19 21.1445 19 23.001C19 23.2662 19.1054 23.5205 19.2929 23.7081C19.4804 23.8956 19.7348 24.001 20 24.001C20.2652 24.001 20.5196 23.8956 20.7071 23.7081C20.8946 23.5205 21 23.2662 21 23.001C20.9974 20.6148 20.0483 18.3272 18.361 16.6399C16.6738 14.9527 14.3861 14.0036 12 14.001Z" fill="#3199DD"/>
</g>
<defs>
<clipPath id="clip0_5515_12299">
<rect width="24" height="24" fill="white"/>
</clipPath>
</defs>
</svg>
