<svg width="36" height="36" viewBox="0 0 36 36" fill="none" xmlns="http://www.w3.org/2000/svg">
<rect width="36" height="36" rx="18" fill="#34D399" fill-opacity="0.15"/>
<g clip-path="url(#clip0_6917_18568)">
<path d="M18 23.8337H13C12.337 23.8337 11.7011 23.5703 11.2322 23.1014C10.7634 22.6326 10.5 21.9967 10.5 21.3337V14.667C10.5 14.004 10.7634 13.3681 11.2322 12.8992C11.7011 12.4304 12.337 12.167 13 12.167H23C23.663 12.167 24.2989 12.4304 24.7678 12.8992C25.2366 13.3681 25.5 14.004 25.5 14.667V18.417" stroke="#34D399" stroke-width="1.5" stroke-linecap="round" stroke-linejoin="round"/>
<path d="M10.5 16.333H25.5" stroke="#34D399" stroke-width="1.5" stroke-linecap="round" stroke-linejoin="round"/>
<path d="M13.8374 20.5H13.8416" stroke="#34D399" stroke-width="1.5" stroke-linecap="round" stroke-linejoin="round"/>
<path d="M17.1667 20.5H18.8334" stroke="#34D399" stroke-width="1.5" stroke-linecap="round" stroke-linejoin="round"/>
<path d="M21.6111 19.666H21.0556C20.9082 19.666 20.7669 19.7319 20.6627 19.8491C20.5585 19.9663 20.5 20.1253 20.5 20.291V24.041C20.5 24.2068 20.5585 24.3657 20.6627 24.483C20.7669 24.6002 20.9082 24.666 21.0556 24.666H21.6111C21.7585 24.666 21.8998 24.6002 22.0039 24.483C22.1081 24.3657 22.1667 24.2068 22.1667 24.041V20.291C22.1667 20.1253 22.1081 19.9663 22.0039 19.8491C21.8998 19.7319 21.7585 19.666 21.6111 19.666Z" fill="#34D399"/>
<path d="M24.1111 19.666H23.5556C23.4082 19.666 23.2669 19.7319 23.1627 19.8491C23.0585 19.9663 23 20.1253 23 20.291V24.041C23 24.2068 23.0585 24.3657 23.1627 24.483C23.2669 24.6002 23.4082 24.666 23.5556 24.666H24.1111C24.2585 24.666 24.3998 24.6002 24.5039 24.483C24.6081 24.3657 24.6667 24.2068 24.6667 24.041V20.291C24.6667 20.1253 24.6081 19.9663 24.5039 19.8491C24.3998 19.7319 24.2585 19.666 24.1111 19.666Z" fill="#34D399"/>
</g>
<defs>
<clipPath id="clip0_6917_18568">
<rect width="20" height="20" fill="white" transform="translate(8 8)"/>
</clipPath>
</defs>
</svg>
