<svg width="176" height="150" viewBox="0 0 176 150" fill="none" xmlns="http://www.w3.org/2000/svg">
<g clip-path="url(#clip0_5184_9115)">
<path d="M51.496 148.435C54.309 146.058 56.0176 142.303 55.5695 138.648C55.1214 134.992 52.3461 131.632 48.7462 130.856C45.1462 130.079 41.0425 132.228 39.949 135.745C39.3473 128.965 38.6538 121.901 35.0492 116.127C31.7853 110.899 26.1321 107.158 20.0053 106.489C13.8786 105.82 7.42785 108.347 3.60681 113.183C-0.214228 118.019 -1.14979 125.049 1.52637 130.601C3.49779 134.691 7.12987 137.735 10.9354 140.211C23.2323 148.145 37.9809 151.372 52.4675 149.297" fill="#1E293B"/>
<path d="M9.66592 108.488C14.7213 112.606 19.359 117.211 23.5121 122.237C30.0116 130.076 35.2711 138.865 39.1073 148.298C39.3881 148.987 38.2707 149.286 37.993 148.606C35.5534 142.642 32.5352 136.931 28.9817 131.556C23.4403 123.159 16.6514 115.656 8.84879 109.305C8.27189 108.835 9.09378 108.022 9.66592 108.488V108.488Z" fill="#64748B"/>
<path d="M53.4394 148.435C50.6265 146.058 48.9179 142.303 49.366 138.648C49.8141 134.992 52.5894 131.632 56.1893 130.856C59.7893 130.079 63.893 132.228 64.9865 135.745C65.5882 128.965 66.2817 121.901 69.8863 116.127C73.1502 110.899 78.8034 107.158 84.9302 106.489C91.0569 105.82 97.5076 108.347 101.329 113.183C105.15 118.019 106.085 125.049 103.409 130.601C101.438 134.691 97.8056 137.735 94.0001 140.211C81.7032 148.145 66.9546 151.372 52.468 149.297" fill="#1E293B"/>
<path d="M95.2695 108.488C90.2141 112.606 85.5764 117.211 81.4233 122.237C74.9238 130.076 69.6643 138.865 65.8281 148.298C65.5473 148.987 66.6647 149.286 66.9424 148.606C73.2191 133.275 83.2393 119.763 96.0866 109.305C96.6635 108.835 95.8416 108.022 95.2695 108.488V108.488Z" fill="#64748B"/>
<path d="M61.7858 67.4768C66.9897 67.4768 71.2083 63.2582 71.2083 58.0543C71.2083 52.8504 66.9897 48.6318 61.7858 48.6318C56.5819 48.6318 52.3633 52.8504 52.3633 58.0543C52.3633 63.2582 56.5819 67.4768 61.7858 67.4768Z" fill="#F1F5F9"/>
<path d="M4 50.3C4 35.7749 15.7749 24 30.3 24H97V95H5.6C4.71634 95 4 94.2837 4 93.4V50.3Z" fill="white"/>
<path d="M32.7341 25.5742H97.6525V29.126H41.0215C37.6918 29.126 34.3947 29.7818 31.3185 31.056C28.2423 32.3302 25.4471 34.1979 23.0927 36.5523C20.7382 38.9068 18.8706 41.7019 17.5964 44.7781C16.3221 47.8543 15.6663 51.1514 15.6663 54.4811V94.8333H8.56282C8.24883 94.8333 7.9477 94.7085 7.72568 94.4865C7.50365 94.2645 7.37891 93.9633 7.37891 93.6494V50.9294C7.3789 47.5997 8.03474 44.3026 9.30895 41.2263C10.5832 38.1501 12.4508 35.355 14.8053 33.0005C17.1597 30.6461 19.9549 28.7785 23.0311 27.5042C26.1073 26.23 29.4044 25.5742 32.7341 25.5742Z" fill="#F1F5F9"/>
<path d="M45.2207 148.632V94.6807H61.0262V148.632C61.0258 148.995 60.8815 149.342 60.6251 149.599C60.3687 149.855 60.021 149.999 59.6584 150H46.5885C46.2259 149.999 45.8782 149.855 45.6218 149.599C45.3654 149.342 45.2211 148.995 45.2207 148.632Z" fill="#334155"/>
<path d="M4.03516 93.6171V49.7464C4.04304 42.7625 6.82089 36.0668 11.7593 31.1285C16.6976 26.1901 23.3933 23.4122 30.3772 23.4043H97.3482V95.1368H5.55491C5.15199 95.1364 4.76571 94.9761 4.4808 94.6912C4.19589 94.4063 4.03562 94.02 4.03516 93.6171ZM96.7403 24.0122H30.3772C23.5544 24.0199 17.0133 26.7337 12.1889 31.5581C7.36451 36.3825 4.65077 42.9236 4.64306 49.7464V93.6171C4.64332 93.8588 4.73948 94.0906 4.91043 94.2615C5.08138 94.4325 5.31316 94.5286 5.55491 94.5289H96.7403V24.0122Z" fill="#334155"/>
<path d="M61.7858 62.9179C60.3353 62.9163 58.9446 62.3394 57.9189 61.3137C56.8932 60.288 56.3163 58.8973 56.3147 57.4468V18.2371C56.3144 17.9953 56.2182 17.7635 56.0473 17.5926C55.8763 17.4216 55.6446 17.3255 55.4028 17.3252H34.1262C33.7233 17.3248 33.337 17.1645 33.0521 16.8796C32.7672 16.5947 32.6069 16.2084 32.6064 15.8055V1.51976C32.6069 1.11684 32.7672 0.730549 33.0521 0.44564C33.337 0.160732 33.7233 0.000466577 34.1262 0H65.7372C66.1401 0.000460958 66.5263 0.160726 66.8113 0.445635C67.0962 0.730545 67.2564 1.11683 67.2569 1.51976V57.4468C67.2553 58.8973 66.6783 60.288 65.6526 61.3137C64.627 62.3394 63.2363 62.9163 61.7858 62.9179Z" fill="#3199DD"/>
<path d="M99.7803 22.7959C104.366 22.7863 108.767 24.5986 112.016 27.8341C115.265 31.0696 117.096 35.4633 117.106 40.0487V89.9908H151.148C152.516 89.9879 153.828 90.5285 154.797 91.4934C155.766 92.4584 156.312 93.7688 156.315 95.1363H82.4551V40.0487C82.4647 35.4633 84.2954 31.0696 87.5445 27.8341C90.7936 24.5986 95.195 22.7863 99.7803 22.7959Z" fill="#334155"/>
<path d="M95.6231 51.2366L99.2106 66.0561L169.387 49.0678L165.8 34.2483C165.756 34.0671 165.668 33.8998 165.543 33.7619C165.417 33.624 165.259 33.52 165.083 33.4595C164.953 33.4138 164.815 33.3931 164.678 33.3985L124.113 12.3949C123.875 12.2735 123.602 12.2411 123.342 12.3035C123.083 12.3658 122.854 12.5189 122.697 12.7351L103.147 39.9976L95.7769 50.2781C95.7636 50.2961 95.7542 50.3168 95.7496 50.3387C95.7449 50.3607 95.745 50.3833 95.7499 50.4052C95.5999 50.6549 95.5543 50.9536 95.6231 51.2366Z" fill="white"/>
<path d="M95.7498 50.4052C95.7533 50.4245 95.7606 50.4429 95.7712 50.4594C95.7818 50.4759 95.7955 50.4901 95.8116 50.5012C95.8306 50.5143 95.8521 50.5233 95.8748 50.5278C95.8974 50.5322 95.9207 50.5321 95.9433 50.5272C95.98 50.5175 96.0121 50.4952 96.0341 50.4642L96.0595 50.4292L96.4432 49.8925L103.412 40.1769L122.957 12.9206C123.068 12.7662 123.232 12.6568 123.417 12.6124C123.602 12.568 123.797 12.5915 123.966 12.6786L164.217 33.5196L164.579 33.707C164.593 33.7132 164.608 33.7184 164.623 33.7227C164.651 33.7178 164.678 33.7151 164.706 33.7148C164.744 33.7022 164.775 33.6756 164.794 33.6404C164.804 33.6219 164.81 33.6017 164.812 33.5808C164.814 33.56 164.812 33.539 164.805 33.5189C164.799 33.4989 164.789 33.4803 164.776 33.4642C164.762 33.4481 164.746 33.4348 164.727 33.425L164.678 33.3985L124.112 12.3949C123.875 12.2735 123.602 12.2411 123.342 12.3035C123.082 12.3658 122.854 12.5189 122.697 12.7351L103.147 39.9976L95.7769 50.2781C95.7635 50.2961 95.7542 50.3168 95.7495 50.3387C95.7448 50.3607 95.745 50.3833 95.7498 50.4052Z" fill="#334155"/>
<path d="M116.826 51.9165L118.388 52.0898L129.981 53.3741L137.667 54.2249L138.121 54.2754L147.711 46.7846L148.079 46.4977L150.344 44.7286L158.403 38.4349L158.451 37.9928L161.318 12.1223C161.357 11.766 161.253 11.4088 161.029 11.129C160.805 10.8492 160.479 10.6695 160.123 10.6294L121.869 6.3918C121.513 6.3529 121.156 6.45674 120.876 6.68058C120.596 6.90442 120.417 7.23003 120.376 7.58608L118.355 25.8346L117.234 35.9519L116.231 45.0031L115.766 49.2065L115.63 50.424C115.591 50.7804 115.695 51.1376 115.92 51.4173C116.144 51.6971 116.47 51.8766 116.826 51.9165Z" fill="#CBD5E1"/>
<path d="M127.338 29.2397L143.908 31.075L149.785 31.7256C150.044 31.7544 150.307 31.7317 150.557 31.659C150.808 31.5863 151.042 31.4649 151.246 31.3017C151.449 31.1386 151.619 30.9369 151.745 30.7082C151.871 30.4795 151.95 30.2282 151.979 29.9688C152.008 29.7094 151.985 29.4468 151.912 29.1961C151.84 28.9454 151.718 28.7115 151.555 28.5077C151.392 28.3039 151.19 28.1343 150.962 28.0084C150.733 27.8826 150.482 27.8031 150.222 27.7743L142.913 26.9648L127.777 25.2864C127.252 25.2285 126.727 25.3811 126.315 25.7107C125.904 26.0402 125.64 26.5197 125.581 27.0438C125.523 27.5678 125.676 28.0935 126.005 28.5053C126.334 28.9171 126.814 29.1813 127.338 29.2397Z" fill="white"/>
<path d="M126.395 36.5695C126.437 36.5771 126.48 36.5848 126.524 36.589L145.759 38.72L148.971 39.0765C149.495 39.1344 150.021 38.9818 150.432 38.6522C150.844 38.3225 151.108 37.8428 151.166 37.3186C151.224 36.7945 151.071 36.2687 150.742 35.857C150.412 35.4454 149.932 35.1816 149.408 35.1236L144.764 34.6098L129.527 32.9214L126.963 32.6373C126.45 32.5801 125.935 32.7245 125.527 33.0401C125.119 33.3557 124.849 33.8176 124.775 34.3283C124.702 34.839 124.829 35.3584 125.131 35.7766C125.434 36.1948 125.887 36.4792 126.395 36.5695V36.5695Z" fill="white"/>
<path d="M124.218 43.0697C124.375 43.3314 124.591 43.5532 124.848 43.718C125.106 43.8827 125.397 43.9859 125.701 44.0196L133.585 44.8928L147.627 46.4484L147.63 46.4477L148.079 46.4977L150.344 44.7287C150.358 44.5943 150.358 44.4588 150.344 44.3244C150.297 43.8732 150.096 43.4517 149.776 43.1298C149.456 42.8079 149.036 42.6049 148.585 42.5542L146.635 42.3375L138.897 41.4813L133.33 40.8638L126.138 40.0668C125.77 40.026 125.397 40.0891 125.062 40.2489C124.728 40.4088 124.445 40.6591 124.245 40.9715C124.045 41.2839 123.937 41.6459 123.932 42.0167C123.927 42.3874 124.026 42.7522 124.218 43.0696L124.218 43.0697Z" fill="white"/>
<path d="M135.291 20.2793L139.414 20.736L141.235 20.9382L143.986 21.2426C144.51 21.3006 145.036 21.148 145.447 20.8183C145.859 20.4887 146.123 20.009 146.181 19.4848C146.239 18.9606 146.086 18.4349 145.756 18.0232C145.427 17.6116 144.947 17.3477 144.423 17.2897L135.73 16.3276C135.206 16.2694 134.68 16.4217 134.269 16.751C133.857 17.0804 133.593 17.5598 133.535 18.0838C133.476 18.6079 133.629 19.1336 133.958 19.5453C134.287 19.957 134.767 20.2211 135.291 20.2793V20.2793Z" fill="white"/>
<path d="M101.579 31.2866L106.605 52.0507L114.995 53.6459L122.755 55.1234L131.082 56.7077L133.742 57.214C133.898 57.2434 134.058 57.2394 134.212 57.2021C134.366 57.1648 134.51 57.0951 134.636 56.9977L136.77 55.3307L138.121 54.2753L147.712 46.7845L141.614 21.595C141.554 21.3444 141.422 21.1165 141.236 20.9387C141.072 20.7814 140.871 20.6679 140.652 20.6085C140.433 20.5492 140.202 20.546 139.982 20.5992L102.575 29.6547C102.226 29.7392 101.926 29.9586 101.739 30.2646C101.552 30.5706 101.495 30.9382 101.579 31.2866Z" fill="#3199DD"/>
<path d="M113.104 47.8052C113.229 48.3174 113.551 48.7593 114.001 49.0338C114.451 49.3084 114.992 49.3932 115.504 49.2696L137.454 43.956C137.966 43.8313 138.408 43.5086 138.682 43.0588C138.957 42.6089 139.042 42.0685 138.918 41.5561C138.913 41.5307 138.906 41.5057 138.897 41.4811C138.757 40.9871 138.431 40.5665 137.987 40.3075C137.544 40.0485 137.018 39.9711 136.518 40.0917L114.569 45.4052C114.057 45.5297 113.615 45.8523 113.34 46.3023C113.066 46.7522 112.981 47.2927 113.104 47.8052Z" fill="white"/>
<path d="M114.994 53.6459L122.755 55.1234L139.194 51.1438C139.706 51.0198 140.148 50.6972 140.423 50.2472C140.698 49.7971 140.782 49.2563 140.658 48.7439C140.534 48.2314 140.212 47.7893 139.761 47.5146C139.311 47.24 138.771 47.1554 138.258 47.2794L116.309 52.593C115.85 52.7032 115.446 52.974 115.17 53.3564C115.103 53.4478 115.044 53.5446 114.994 53.6459Z" fill="white"/>
<path d="M131.081 56.7071L133.742 57.2134C133.897 57.2428 134.058 57.2388 134.212 57.2015C134.366 57.1642 134.51 57.0945 134.635 56.9971L136.769 55.3301L131.081 56.7071Z" fill="white"/>
<path d="M117.527 36.6707C117.652 37.1829 117.975 37.6248 118.424 37.8993C118.874 38.1739 119.415 38.2587 119.927 38.1351L128.429 36.077C128.941 35.9523 129.383 35.6296 129.657 35.1798C129.932 34.7299 130.017 34.1895 129.893 33.6771C129.827 33.4018 129.702 33.144 129.527 32.9214C129.292 32.6205 128.975 32.3937 128.615 32.268C128.254 32.1424 127.865 32.1231 127.494 32.2127L118.992 34.2707C118.479 34.3948 118.037 34.7174 117.763 35.1675C117.488 35.6175 117.403 36.1582 117.527 36.6707V36.6707Z" fill="white"/>
<path d="M122.755 55.123L131.082 56.7077L133.742 57.2142C133.898 57.2433 134.058 57.239 134.212 57.2018C134.366 57.1645 134.51 57.0951 134.635 56.998L136.771 55.3306L136.021 55.512L134.439 56.7464C134.35 56.8157 134.247 56.8653 134.137 56.8919C134.027 56.9186 133.913 56.9216 133.801 56.9008L131.832 56.5262L123.504 54.9416L122.755 55.123ZM147.629 46.4485L147.71 46.7834L148.08 46.4963L147.629 46.4485ZM122.755 55.123L131.082 56.7077L133.742 57.2142C133.898 57.2433 134.058 57.239 134.212 57.2018C134.366 57.1645 134.51 57.0951 134.635 56.998L136.771 55.3306L136.021 55.512L134.439 56.7464C134.35 56.8157 134.247 56.8653 134.137 56.8919C134.027 56.9186 133.913 56.9216 133.801 56.9008L131.832 56.5262L123.504 54.9416L122.755 55.123ZM122.755 55.123L131.082 56.7077L133.742 57.2142C133.898 57.2433 134.058 57.239 134.212 57.2018C134.366 57.1645 134.51 57.0951 134.635 56.998L136.771 55.3306L136.021 55.512L134.439 56.7464C134.35 56.8157 134.247 56.8653 134.137 56.8919C134.027 56.9186 133.913 56.9216 133.801 56.9008L131.832 56.5262L123.504 54.9416L122.755 55.123ZM95.6231 51.2364L105.02 90.0541C105.09 90.341 105.27 90.5884 105.522 90.7422C105.774 90.896 106.077 90.9435 106.364 90.8743L174.377 74.4099C174.663 74.3402 174.911 74.1595 175.065 73.9075C175.218 73.6555 175.266 73.3528 175.197 73.0658L165.8 34.2481C165.756 34.0669 165.668 33.8996 165.543 33.7617C165.417 33.6238 165.259 33.5198 165.083 33.4593C164.953 33.4136 164.815 33.3929 164.678 33.3983C164.517 33.403 164.36 33.4444 164.217 33.5194C164.152 33.5505 164.09 33.589 164.033 33.634L158.451 37.9926L150.345 44.3249L147.629 46.4462L147.629 46.4485L147.627 46.4491L137.668 54.2236L136.022 55.512L134.439 56.7464C134.35 56.8157 134.247 56.8653 134.137 56.8919C134.027 56.9185 133.913 56.9216 133.801 56.9008L131.832 56.5262L123.504 54.9416L115.169 53.3563L96.9136 49.8822C96.7579 49.8513 96.5974 49.8548 96.4433 49.8923C96.2357 49.9431 96.047 50.0524 95.8997 50.2072C95.8433 50.268 95.7932 50.3343 95.7499 50.4051C95.5999 50.6547 95.5543 50.9534 95.6231 51.2364ZM122.755 55.123L131.082 56.7077L133.742 57.2142C133.898 57.2433 134.058 57.239 134.212 57.2018C134.366 57.1645 134.51 57.0951 134.635 56.998L136.771 55.3306L136.021 55.512L134.439 56.7464C134.35 56.8157 134.247 56.8653 134.137 56.8919C134.027 56.9186 133.913 56.9216 133.801 56.9008L131.832 56.5262L123.504 54.9416L122.755 55.123ZM122.755 55.123L131.082 56.7077L133.742 57.2142C133.898 57.2433 134.058 57.239 134.212 57.2018C134.366 57.1645 134.51 57.0951 134.635 56.998L136.771 55.3306L136.021 55.512L134.439 56.7464C134.35 56.8157 134.247 56.8653 134.137 56.8919C134.027 56.9186 133.913 56.9216 133.801 56.9008L131.832 56.5262L123.504 54.9416L122.755 55.123ZM122.755 55.123L131.082 56.7077L133.742 57.2142C133.898 57.2433 134.058 57.239 134.212 57.2018C134.366 57.1645 134.51 57.0951 134.635 56.998L136.771 55.3306L136.021 55.512L134.439 56.7464C134.35 56.8157 134.247 56.8653 134.137 56.8919C134.027 56.9186 133.913 56.9216 133.801 56.9008L131.832 56.5262L123.504 54.9416L122.755 55.123Z" fill="white"/>
<path d="M122.755 55.123L131.082 56.7077L133.742 57.2142C133.898 57.2433 134.058 57.239 134.212 57.2018C134.366 57.1645 134.51 57.0951 134.635 56.998L136.771 55.3306L136.021 55.512L134.439 56.7464C134.35 56.8157 134.247 56.8653 134.137 56.8919C134.027 56.9185 133.913 56.9216 133.801 56.9008L131.832 56.5262L123.504 54.9415L122.755 55.123ZM147.629 46.4485L147.71 46.7834L148.08 46.4963L147.629 46.4485ZM122.755 55.123L131.082 56.7077L133.742 57.2142C133.898 57.2433 134.058 57.239 134.212 57.2018C134.366 57.1645 134.51 57.0951 134.635 56.998L136.771 55.3306L136.021 55.512L134.439 56.7464C134.35 56.8157 134.247 56.8653 134.137 56.8919C134.027 56.9185 133.913 56.9216 133.801 56.9008L131.832 56.5262L123.504 54.9415L122.755 55.123ZM122.755 55.123L131.082 56.7077L133.742 57.2142C133.898 57.2433 134.058 57.239 134.212 57.2018C134.366 57.1645 134.51 57.0951 134.635 56.998L136.771 55.3306L136.021 55.512L134.439 56.7464C134.35 56.8157 134.247 56.8653 134.137 56.8919C134.027 56.9185 133.913 56.9216 133.801 56.9008L131.832 56.5262L123.504 54.9415L122.755 55.123ZM96.0595 50.429L96.1008 50.46C96.1077 50.4487 96.1198 50.4385 96.1289 50.4266C96.221 50.3308 96.3354 50.2593 96.462 50.2186C96.5885 50.1778 96.7231 50.1692 96.8538 50.1933L114.995 53.6443L122.755 55.123L131.082 56.7077L133.742 57.2142C133.898 57.2433 134.058 57.239 134.212 57.2018C134.366 57.1645 134.51 57.0951 134.635 56.998L136.771 55.3306L136.021 55.512L134.439 56.7464C134.35 56.8157 134.247 56.8653 134.137 56.8919C134.027 56.9185 133.913 56.9216 133.801 56.9008L131.832 56.5262L123.504 54.9415L115.169 53.3562L96.9136 49.8822C96.7579 49.8513 96.5974 49.8548 96.4433 49.8923L96.0595 50.429ZM95.6231 51.2364L105.02 90.0541C105.09 90.341 105.27 90.5884 105.522 90.7422C105.774 90.896 106.077 90.9435 106.364 90.8743L174.377 74.4099C174.663 74.3402 174.911 74.1595 175.065 73.9075C175.218 73.6555 175.266 73.3528 175.197 73.0658L165.8 34.2481C165.756 34.0669 165.668 33.8996 165.543 33.7617C165.417 33.6238 165.259 33.5198 165.083 33.4593C164.953 33.4136 164.815 33.3929 164.678 33.3983C164.517 33.403 164.36 33.4444 164.217 33.5194C164.152 33.5505 164.09 33.589 164.033 33.634L158.451 37.9926L150.345 44.3249L147.629 46.4462L147.629 46.4485L147.627 46.4491L137.668 54.2236L136.022 55.512L134.439 56.7464C134.35 56.8157 134.247 56.8653 134.137 56.8919C134.027 56.9185 133.913 56.9216 133.801 56.9008L131.832 56.5262L123.504 54.9416L115.169 53.3562L96.9136 49.8822C96.7579 49.8513 96.5974 49.8548 96.4433 49.8923C96.2357 49.9431 96.047 50.0523 95.8997 50.2072C95.8433 50.268 95.7932 50.3343 95.7499 50.405C95.5999 50.6547 95.5543 50.9534 95.6231 51.2364ZM95.933 51.1614C95.9053 51.047 95.9035 50.9278 95.9277 50.8126C95.952 50.6974 96.0017 50.5891 96.0733 50.4956C96.0797 50.4819 96.0891 50.4697 96.1008 50.46C96.1077 50.4487 96.1198 50.4385 96.1289 50.4267C96.221 50.3308 96.3354 50.2593 96.462 50.2186C96.5885 50.1778 96.7231 50.1692 96.8538 50.1933L114.995 53.6443L122.755 55.123L131.082 56.7077L133.742 57.2142C133.898 57.2433 134.058 57.239 134.212 57.2018C134.366 57.1645 134.51 57.0951 134.635 56.998L136.771 55.3306L138.122 54.2753L147.71 46.7834L148.08 46.4962L150.343 44.728L158.403 38.4334L164.231 33.8827C164.319 33.8137 164.421 33.7642 164.531 33.7378C164.561 33.7303 164.592 33.7252 164.623 33.7225C164.651 33.7176 164.678 33.7149 164.706 33.7146C164.799 33.7138 164.892 33.7289 164.98 33.7593C165.105 33.803 165.218 33.8775 165.307 33.9758C165.397 34.0742 165.46 34.1934 165.492 34.3226L174.889 73.1403C174.914 73.242 174.918 73.3476 174.902 73.451C174.886 73.5544 174.85 73.6537 174.795 73.743C174.741 73.8324 174.669 73.9101 174.584 73.9718C174.5 74.0334 174.404 74.0778 174.302 74.1023L106.29 90.5667C106.084 90.6161 105.868 90.5819 105.688 90.4716C105.508 90.3615 105.379 90.1843 105.33 89.9791L95.933 51.1614ZM122.755 55.123L131.082 56.7077L133.742 57.2142C133.898 57.2433 134.058 57.239 134.212 57.2018C134.366 57.1645 134.51 57.0951 134.635 56.998L136.771 55.3306L136.021 55.512L134.439 56.7464C134.35 56.8157 134.247 56.8653 134.137 56.8919C134.027 56.9186 133.913 56.9216 133.801 56.9008L131.832 56.5262L123.504 54.9416L122.755 55.123ZM122.755 55.123L131.082 56.7077L133.742 57.2142C133.898 57.2433 134.058 57.239 134.212 57.2018C134.366 57.1645 134.51 57.0951 134.635 56.998L136.771 55.3306L136.021 55.512L134.439 56.7464C134.35 56.8157 134.247 56.8653 134.137 56.8919C134.027 56.9186 133.913 56.9216 133.801 56.9008L131.832 56.5262L123.504 54.9416L122.755 55.123ZM122.755 55.123L131.082 56.7077L133.742 57.2142C133.898 57.2433 134.058 57.239 134.212 57.2018C134.366 57.1645 134.51 57.0951 134.635 56.998L136.771 55.3306L136.021 55.512L134.439 56.7464C134.35 56.8157 134.247 56.8653 134.137 56.8919C134.027 56.9186 133.913 56.9216 133.801 56.9008L131.832 56.5262L123.504 54.9416L122.755 55.123Z" fill="#334155"/>
<path d="M156.65 66.7836C156.497 66.1475 156.602 65.4766 156.943 64.9181C157.283 64.3596 157.832 63.9591 158.468 63.8045L167.052 61.7264C167.687 61.575 168.356 61.6816 168.913 62.0227C169.47 62.3638 169.869 62.9117 170.022 63.5463C170.176 64.181 170.072 64.8507 169.733 65.4087C169.394 65.9667 168.847 66.3676 168.213 66.5234L159.629 68.6014C158.993 68.7547 158.322 68.6493 157.763 68.3085C157.205 67.9677 156.804 67.4193 156.65 66.7836Z" fill="#3199DD"/>
<path d="M61.7859 59.5747C62.9609 59.5747 63.9135 58.6221 63.9135 57.447C63.9135 56.2719 62.9609 55.3193 61.7859 55.3193C60.6108 55.3193 59.6582 56.2719 59.6582 57.447C59.6582 58.6221 60.6108 59.5747 61.7859 59.5747Z" fill="white"/>
</g>
<defs>
<clipPath id="clip0_5184_9115">
<rect width="175.228" height="150" fill="white"/>
</clipPath>
</defs>
</svg>
