<svg width="22" height="24" viewBox="0 0 22 24" fill="#ffffff" xmlns="http://www.w3.org/2000/svg">
<path d="M13 24C12.7836 24 12.5731 23.9298 12.4 23.8L8.39998 20.8C8.27578 20.7069 8.17498 20.5861 8.10555 20.4472C8.03613 20.3084 7.99998 20.1552 7.99998 20V14.38L0.983981 6.487C0.485701 5.92488 0.16036 5.23082 0.0470605 4.48823C-0.0662389 3.74565 0.0373247 2.98615 0.345304 2.30101C0.653283 1.61588 1.15257 1.03426 1.78316 0.626066C2.41375 0.217873 3.14881 0.000474419 3.89998 0L18.1 0C18.8511 0.000881051 19.586 0.218639 20.2163 0.627107C20.8466 1.03557 21.3456 1.61737 21.6533 2.30259C21.9609 2.9878 22.0641 3.74727 21.9506 4.48975C21.837 5.23222 21.5114 5.9261 21.013 6.488L14 14.38V23C14 23.2652 13.8946 23.5196 13.7071 23.7071C13.5196 23.8946 13.2652 24 13 24ZM9.99998 19.5L12 21V14C12.0002 13.7552 12.0902 13.5189 12.253 13.336L19.521 5.159C19.7633 4.88508 19.9215 4.54704 19.9764 4.18545C20.0314 3.82387 19.9808 3.4541 19.8307 3.12056C19.6807 2.78701 19.4376 2.50386 19.1306 2.30509C18.8236 2.10632 18.4657 2.00038 18.1 2H3.89998C3.53443 2.00055 3.1768 2.10655 2.86998 2.30527C2.56317 2.50399 2.32019 2.78699 2.17019 3.12035C2.02019 3.45371 1.96954 3.82326 2.02431 4.18468C2.07908 4.5461 2.23695 4.88405 2.47898 5.158L9.74798 13.336C9.9104 13.519 10.0001 13.7553 9.99998 14V19.5Z" fill="#D3EEFF"/>
</svg>
