<svg width="20" height="20" fill="#3199DD" xmlns="http://www.w3.org/2000/svg">
<path d="M9.1665 5C9.1665 5.66304 9.60549 6.29893 10.3869 6.76777C11.1683 7.23661 12.2281 7.5 13.3332 7.5C14.4382 7.5 15.498 7.23661 16.2794 6.76777C17.0609 6.29893 17.4998 5.66304 17.4998 5C17.4998 4.33696 17.0609 3.70107 16.2794 3.23223C15.498 2.76339 14.4382 2.5 13.3332 2.5C12.2281 2.5 11.1683 2.76339 10.3869 3.23223C9.60549 3.70107 9.1665 4.33696 9.1665 5Z" stroke="#3199DD" stroke-width="1.5" stroke-linecap="round" stroke-linejoin="round"/>
<path d="M9.1665 5V8.33333C9.1665 9.71417 11.0323 10.8333 13.3332 10.8333C15.634 10.8333 17.4998 9.71417 17.4998 8.33333V5" stroke="#3199DD" stroke-width="1.0" stroke-linecap="round" stroke-linejoin="round"/>
<path d="M9.1665 8.33301V11.6663C9.1665 13.0472 11.0323 14.1663 13.3332 14.1663C15.634 14.1663 17.4998 13.0472 17.4998 11.6663V8.33301" stroke="#3199DD" stroke-width="1.0" stroke-linecap="round" stroke-linejoin="round"/>
<path d="M9.1665 11.667V15.0003C9.1665 16.3812 11.0323 17.5003 13.3332 17.5003C15.634 17.5003 17.4998 16.3812 17.4998 15.0003V11.667" stroke="#3199DD" stroke-width="1.0" stroke-linecap="round" stroke-linejoin="round"/>
<path d="M5.83333 7.5H3.75C3.41848 7.5 3.10054 7.6317 2.86612 7.86612C2.6317 8.10054 2.5 8.41848 2.5 8.75C2.5 9.08152 2.6317 9.39946 2.86612 9.63388C3.10054 9.8683 3.41848 10 3.75 10H4.58333C4.91485 10 5.2328 10.1317 5.46722 10.3661C5.70164 10.6005 5.83333 10.9185 5.83333 11.25C5.83333 11.5815 5.70164 11.8995 5.46722 12.1339C5.2328 12.3683 4.91485 12.5 4.58333 12.5H2.5" stroke="#3199DD" stroke-width="1.5" stroke-linecap="round" stroke-linejoin="round"/>
<path d="M4.1665 12.5003V13.3337M4.1665 6.66699V7.50033" stroke="#3199DD" stroke-width="1.0" stroke-linecap="round" stroke-linejoin="round"/>
</svg>
