<svg width="17" height="20" viewBox="0 0 17 20" fill="none" xmlns="http://www.w3.org/2000/svg">
<g clip-path="url(#clip0_6971_5571)">
<path d="M8.33333 8.33335C7.67029 8.33335 7.03441 8.59674 6.56557 9.06558C6.09673 9.53442 5.83333 10.1703 5.83333 10.8333C5.83333 11.4964 6.09673 12.1323 6.56557 12.6011C7.03441 13.07 7.67029 13.3333 8.33333 13.3333H11.6667C12.3297 13.3333 12.9656 13.07 13.4344 12.6011C13.9033 12.1323 14.1667 11.4964 14.1667 10.8333C14.1667 10.1703 13.9033 9.53442 13.4344 9.06558C12.9656 8.59674 12.3297 8.33335 11.6667 8.33335H8.33333ZM12.5 10.8333C12.5 11.0544 12.4122 11.2663 12.2559 11.4226C12.0996 11.5789 11.8877 11.6667 11.6667 11.6667H8.33333C8.11232 11.6667 7.90036 11.5789 7.74408 11.4226C7.5878 11.2663 7.5 11.0544 7.5 10.8333C7.5 10.6123 7.5878 10.4004 7.74408 10.2441C7.90036 10.0878 8.11232 10 8.33333 10H11.6667C11.8877 10 12.0996 10.0878 12.2559 10.2441C12.4122 10.4004 12.5 10.6123 12.5 10.8333ZM14.1667 15.8333C14.1667 16.0544 14.0789 16.2663 13.9226 16.4226C13.7663 16.5789 13.5543 16.6667 13.3333 16.6667H6.66667C6.44565 16.6667 6.23369 16.5789 6.07741 16.4226C5.92113 16.2663 5.83333 16.0544 5.83333 15.8333C5.83333 15.6123 5.92113 15.4004 6.07741 15.2441C6.23369 15.0878 6.44565 15 6.66667 15H13.3333C13.5543 15 13.7663 15.0878 13.9226 15.2441C14.0789 15.4004 14.1667 15.6123 14.1667 15.8333ZM16.28 2.60085L14.8983 1.22085C14.5124 0.832722 14.0533 0.524981 13.5477 0.315428C13.042 0.105874 12.4998 -0.00133165 11.9525 1.24844e-05H6.66667C5.562 0.0013357 4.50296 0.440748 3.72185 1.22186C2.94073 2.00298 2.50132 3.06202 2.5 4.16668V15.8333C2.50132 16.938 2.94073 17.9971 3.72185 18.7782C4.50296 19.5593 5.562 19.9987 6.66667 20H13.3333C14.438 19.9987 15.497 19.5593 16.2782 18.7782C17.0593 17.9971 17.4987 16.938 17.5 15.8333V5.54751C17.5016 5.00008 17.3945 4.45778 17.1851 3.95199C16.9757 3.44619 16.6681 2.98695 16.28 2.60085ZM15.1017 3.77918C15.2189 3.89787 15.3244 4.02764 15.4167 4.16668H13.3333V2.08335C13.4726 2.17462 13.6022 2.27989 13.72 2.39751L15.1017 3.77918ZM15.8333 15.8333C15.8333 16.4964 15.5699 17.1323 15.1011 17.6011C14.6323 18.07 13.9964 18.3333 13.3333 18.3333H6.66667C6.00363 18.3333 5.36774 18.07 4.8989 17.6011C4.43006 17.1323 4.16667 16.4964 4.16667 15.8333V4.16668C4.16667 3.50364 4.43006 2.86775 4.8989 2.39891C5.36774 1.93007 6.00363 1.66668 6.66667 1.66668H11.6667V4.16668C11.6667 4.60871 11.8423 5.03263 12.1548 5.34519C12.4674 5.65775 12.8913 5.83335 13.3333 5.83335H15.8333V15.8333Z" fill="#64748B"/>
</g>
<defs>
<clipPath id="clip0_6971_5571">
<rect width="20" height="20" fill="white"/>
</clipPath>
</defs>
</svg>
