<svg width="20" height="20" viewBox="0 0 20 20" fill="none" xmlns="http://www.w3.org/2000/svg">
<g clip-path="url(#clip0_6971_13327)">
<path d="M5.83333 5.00065H19.1667C19.3877 5.00065 19.5996 4.91285 19.7559 4.75657C19.9122 4.60029 20 4.38833 20 4.16732C20 3.9463 19.9122 3.73434 19.7559 3.57806C19.5996 3.42178 19.3877 3.33398 19.1667 3.33398H5.83333C5.61232 3.33398 5.40036 3.42178 5.24408 3.57806C5.0878 3.73434 5 3.9463 5 4.16732C5 4.38833 5.0878 4.60029 5.24408 4.75657C5.40036 4.91285 5.61232 5.00065 5.83333 5.00065Z" fill="white"/>
<path d="M19.1667 9.16602H5.83333C5.61232 9.16602 5.40036 9.25381 5.24408 9.41009C5.0878 9.56638 5 9.77834 5 9.99935C5 10.2204 5.0878 10.4323 5.24408 10.5886C5.40036 10.7449 5.61232 10.8327 5.83333 10.8327H19.1667C19.3877 10.8327 19.5996 10.7449 19.7559 10.5886C19.9122 10.4323 20 10.2204 20 9.99935C20 9.77834 19.9122 9.56638 19.7559 9.41009C19.5996 9.25381 19.3877 9.16602 19.1667 9.16602Z" fill="white"/>
<path d="M19.1667 15H5.83333C5.61232 15 5.40036 15.0878 5.24408 15.2441C5.0878 15.4004 5 15.6123 5 15.8333C5 16.0544 5.0878 16.2663 5.24408 16.4226C5.40036 16.5789 5.61232 16.6667 5.83333 16.6667H19.1667C19.3877 16.6667 19.5996 16.5789 19.7559 16.4226C19.9122 16.2663 20 16.0544 20 15.8333C20 15.6123 19.9122 15.4004 19.7559 15.2441C19.5996 15.0878 19.3877 15 19.1667 15Z" fill="white"/>
<path d="M1.66667 5.83333C2.58714 5.83333 3.33333 5.08714 3.33333 4.16666C3.33333 3.24619 2.58714 2.5 1.66667 2.5C0.746192 2.5 0 3.24619 0 4.16666C0 5.08714 0.746192 5.83333 1.66667 5.83333Z" fill="white"/>
<path d="M1.66667 11.6673C2.58714 11.6673 3.33333 10.9211 3.33333 10.0006C3.33333 9.08018 2.58714 8.33398 1.66667 8.33398C0.746192 8.33398 0 9.08018 0 10.0006C0 10.9211 0.746192 11.6673 1.66667 11.6673Z" fill="white"/>
<path d="M1.66667 17.4993C2.58714 17.4993 3.33333 16.7532 3.33333 15.8327C3.33333 14.9122 2.58714 14.166 1.66667 14.166C0.746192 14.166 0 14.9122 0 15.8327C0 16.7532 0.746192 17.4993 1.66667 17.4993Z" fill="white"/>
</g>
<defs>
<clipPath id="clip0_6971_13327">
<rect width="20" height="20" fill="white"/>
</clipPath>
</defs>
</svg>
