<svg width="36" height="36" viewBox="0 0 36 36" fill="none" xmlns="http://www.w3.org/2000/svg">
<rect width="36" height="36" rx="18" fill="#3199DD" fill-opacity="0.15"/>
<path d="M17.1667 13C17.1667 13.663 17.6057 14.2989 18.3871 14.7678C19.1685 15.2366 20.2283 15.5 21.3334 15.5C22.4385 15.5 23.4983 15.2366 24.2797 14.7678C25.0611 14.2989 25.5001 13.663 25.5001 13C25.5001 12.337 25.0611 11.7011 24.2797 11.2322C23.4983 10.7634 22.4385 10.5 21.3334 10.5C20.2283 10.5 19.1685 10.7634 18.3871 11.2322C17.6057 11.7011 17.1667 12.337 17.1667 13Z" stroke="#3199DD" stroke-width="1.5" stroke-linecap="round" stroke-linejoin="round"/>
<path d="M17.1667 13V16.3333C17.1667 17.7142 19.0326 18.8333 21.3334 18.8333C23.6342 18.8333 25.5001 17.7142 25.5001 16.3333V13" stroke="#3199DD" stroke-width="1.5" stroke-linecap="round" stroke-linejoin="round"/>
<path d="M17.1667 16.333V19.6663C17.1667 21.0472 19.0326 22.1663 21.3334 22.1663C23.6342 22.1663 25.5001 21.0472 25.5001 19.6663V16.333" stroke="#3199DD" stroke-width="1.5" stroke-linecap="round" stroke-linejoin="round"/>
<path d="M17.1667 19.667V23.0003C17.1667 24.3812 19.0326 25.5003 21.3334 25.5003C23.6342 25.5003 25.5001 24.3812 25.5001 23.0003V19.667" stroke="#3199DD" stroke-width="1.5" stroke-linecap="round" stroke-linejoin="round"/>
<path d="M13.8333 15.5H11.75C11.4185 15.5 11.1005 15.6317 10.8661 15.8661C10.6317 16.1005 10.5 16.4185 10.5 16.75C10.5 17.0815 10.6317 17.3995 10.8661 17.6339C11.1005 17.8683 11.4185 18 11.75 18H12.5833C12.9149 18 13.2328 18.1317 13.4672 18.3661C13.7016 18.6005 13.8333 18.9185 13.8333 19.25C13.8333 19.5815 13.7016 19.8995 13.4672 20.1339C13.2328 20.3683 12.9149 20.5 12.5833 20.5H10.5" stroke="#3199DD" stroke-width="1.5" stroke-linecap="round" stroke-linejoin="round"/>
<path d="M12.1667 20.5003V21.3337M12.1667 14.667V15.5003" stroke="#3199DD" stroke-width="1.5" stroke-linecap="round" stroke-linejoin="round"/>
</svg>
