<svg width="173" height="150" viewBox="0 0 173 150" fill="#FF0000" xmlns="http://www.w3.org/2000/svg">
<g clip-path="url(#clip0_1395_71805)">
<path d="M9.07489 51.1158L0.810888 46.4612C0.699415 41.4812 1.80526 36.5493 4.03241 32.0938C5.93771 40.7415 15.9647 44.8558 20.591 52.4063C22.0159 54.7723 22.89 57.4287 23.1487 60.1784C23.4074 62.9282 23.044 65.7009 22.0855 68.2912L22.629 74.9961C18.3579 73.7168 14.4149 71.5268 11.0716 68.5769C7.72838 65.627 5.06439 61.9874 3.26321 57.9088C2.27542 55.6107 1.58095 53.1974 1.19621 50.7257C5.04925 51.1358 9.07489 51.1158 9.07489 51.1158Z" fill="#F2F2F2"/>
<path d="M157.635 135.795L157.888 130.097C160.53 128.685 163.476 127.939 166.471 127.925C162.349 131.295 162.864 137.792 160.069 142.324C159.187 143.731 157.999 144.922 156.594 145.807C155.189 146.693 153.602 147.25 151.952 147.44L148.502 149.552C148.029 146.913 148.133 144.203 148.808 141.608C149.483 139.013 150.713 136.595 152.412 134.522C153.377 133.368 154.483 132.34 155.704 131.462C156.531 133.641 157.635 135.795 157.635 135.795Z" fill="#F2F2F2"/>
<path d="M148.745 146.619L145.621 146.619L144.135 134.57L148.745 134.571L148.745 146.619Z" fill="#FFB6B6"/>
<path d="M149.541 149.648L139.469 149.648V149.52C139.469 148.481 139.882 147.483 140.617 146.748C141.352 146.013 142.349 145.6 143.389 145.6H143.389L145.229 144.204L148.662 145.6L149.541 145.6L149.541 149.648Z" fill="#374151"/>
<path d="M134.233 146.619L131.109 146.619L129.623 134.57L134.234 134.571L134.233 146.619Z" fill="#FFB6B6"/>
<path d="M135.029 149.648L124.957 149.648V149.52C124.957 148.481 125.37 147.483 126.105 146.748C126.841 146.013 127.838 145.6 128.877 145.6H128.878L130.718 144.204L134.15 145.6L135.03 145.6L135.029 149.648Z" fill="#374151"/>
<path d="M132.881 80.748L153.199 81.256C157.058 83.352 157.117 87.8884 155.852 93.2744C155.852 93.2744 156.279 96.4757 155.426 97.3293C154.572 98.183 154.145 98.183 154.572 99.6769C154.999 101.171 152.743 103.611 153.017 103.885C153.291 104.159 153.932 105.653 153.932 105.653L151.797 117.818C151.797 117.818 150.303 138.946 149.877 139.373C149.45 139.8 149.023 139.373 149.45 140.44C149.877 141.507 150.303 141.08 149.877 141.507C149.499 141.915 149.142 142.342 148.81 142.787H143.65C143.65 142.787 143.261 140.653 143.261 140.44C143.261 140.226 142.834 138.946 142.834 138.733C142.834 138.519 143.211 138.142 143.211 138.142C143.341 137.708 143.43 137.263 143.474 136.812C143.474 136.385 144.755 119.952 144.755 119.952L142.194 98.6098L136.004 119.525C136.004 119.525 136.004 137.879 135.578 138.306C135.151 138.733 135.151 138.519 135.364 139.373C135.578 140.226 136.431 140.013 135.791 140.653C135.151 141.294 134.937 140.226 135.151 141.294L135.364 142.361L128.962 142.452C128.962 142.452 128.108 140.653 128.535 140.013C128.962 139.373 128.936 139.548 128.415 138.5C127.895 137.452 127.681 137.239 127.895 137.025C128.108 136.812 128.108 135.677 128.108 135.677L129.175 115.256C129.175 115.256 129.388 93.7012 129.388 93.061C129.405 92.7315 129.344 92.4028 129.211 92.1008V91.2318L130.029 88.1523L132.881 80.748Z" fill="#374151"/>
<path d="M145.086 38.4991C148.573 38.4991 151.399 35.6727 151.399 32.1861C151.399 28.6995 148.573 25.873 145.086 25.873C141.6 25.873 138.773 28.6995 138.773 32.1861C138.773 35.6727 141.6 38.4991 145.086 38.4991Z" fill="#FFB6B6"/>
<path d="M141.93 42.6718C140.57 43.4804 139.756 44.966 139.289 46.4778C138.425 49.2766 137.904 52.1703 137.739 55.095L137.246 63.8511L131.137 82.4951C136.432 86.9753 156.334 83.5133 156.334 83.5133C156.334 83.5133 156.945 83.3097 156.334 82.6987C155.723 82.0878 155.128 82.6291 155.739 82.0181C156.35 81.4072 155.929 82.0878 155.725 81.4768C155.522 80.8659 155.725 81.2732 155.929 81.0696C156.133 80.8659 154.352 79.0331 154.352 79.0331L155.982 68.3312L158.018 46.7447C155.574 43.6901 150.66 41.8893 150.66 41.8893L149.39 39.6035L143.04 40.1115L141.93 42.6718Z" fill="#E6E6E6"/>
<path d="M141.063 28.4813C141.307 28.4832 141.551 28.5151 141.787 28.5763C142.253 28.6884 142.727 28.7678 143.204 28.8139C144.666 28.9514 146.039 29.5747 147.104 30.5842C148.17 31.5937 148.867 32.9312 149.083 34.3831C149.45 34.0633 150.285 33.475 150.969 34.0218C150.979 34.0304 150.985 34.0349 151.009 34.0235C151.464 33.808 152.27 31.1548 152.295 28.8188C152.308 27.5789 152.113 25.9956 151.11 25.4942L151.057 25.4678L151.043 25.4104C150.976 25.1315 150.228 24.6554 148.927 24.2848C146.562 23.6114 143.038 22.2997 141.054 24.2302C140.904 24.881 140.415 26.2738 139.922 26.4316C139.375 26.6064 138.903 26.7572 138.829 27.4276C138.766 28.3816 138.771 29.3389 138.842 30.2923C139.027 29.7089 139.391 29.1982 139.881 28.8323C140.23 28.5974 140.643 28.475 141.063 28.4813Z" fill="#374151"/>
<path d="M129.314 63.3633L139.626 56.759L134.432 49.8545L129.303 56.1633L113.323 57.1434C112.903 56.728 112.371 56.4437 111.792 56.3255C111.213 56.2072 110.612 56.2599 110.062 56.4773C109.513 56.6946 109.038 57.0672 108.697 57.5495C108.355 58.0319 108.161 58.6032 108.139 59.1937C108.116 59.7843 108.266 60.3687 108.57 60.8755C108.874 61.3824 109.319 61.7899 109.851 62.0483C110.382 62.3067 110.977 62.4049 111.564 62.3309C112.15 62.2568 112.702 62.0138 113.153 61.6314L129.314 63.3633Z" fill="#FFB6B6"/>
<path d="M149.197 47.5408C149.795 51.163 138.493 58.0798 138.493 58.0798C138.492 57.2296 131.746 63.6479 131.442 62.9428C130.577 60.9388 129.968 56.1923 128.759 55.4326C128.067 54.9981 132.924 50.9166 132.924 50.9166C132.924 50.9166 135.466 48.3556 138.802 45.1251C139.728 44.1944 140.875 43.513 142.136 43.1446C143.396 42.7762 144.729 42.7327 146.011 43.0181C146.011 43.0181 148.598 43.9186 149.197 47.5408Z" fill="#E6E6E6"/>
<path d="M170.452 65.097L163.631 54.9268L156.838 60.2658L163.254 65.2598L164.572 81.2156C164.166 81.6446 163.893 82.1826 163.787 82.764C163.681 83.3454 163.746 83.9451 163.975 84.49C164.204 85.0348 164.587 85.5013 165.076 85.8325C165.566 86.1638 166.141 86.3454 166.732 86.3553C167.323 86.3652 167.904 86.203 168.404 85.8884C168.904 85.5738 169.302 85.1205 169.549 84.5836C169.797 84.0467 169.882 83.4496 169.796 82.8649C169.709 82.2803 169.455 81.7334 169.063 81.291L170.452 65.097Z" fill="#FFB6B6"/>
<path d="M154.212 45.5529C157.82 44.8778 164.975 56.0315 164.975 56.0315C164.125 56.0496 170.685 62.6582 169.986 62.9776C168.001 63.8852 163.268 64.594 162.534 65.8191C162.115 66.5198 157.931 61.7506 157.931 61.7506C157.931 61.7506 155.317 59.2632 152.017 55.9962C151.066 55.0899 150.361 53.9579 149.966 52.7056C149.571 51.4534 149.499 50.1215 149.757 48.834C149.757 48.834 150.603 46.228 154.212 45.5529Z" fill="#E6E6E6"/>
<path d="M172.195 149.698C172.195 149.737 172.187 149.777 172.172 149.814C172.157 149.85 172.135 149.884 172.106 149.912C172.078 149.94 172.045 149.962 172.008 149.977C171.972 149.992 171.932 150 171.893 150H100.705C100.624 150 100.548 149.968 100.491 149.911C100.434 149.855 100.402 149.778 100.402 149.698C100.402 149.618 100.434 149.541 100.491 149.484C100.548 149.427 100.624 149.396 100.705 149.396H171.893C171.932 149.395 171.972 149.403 172.008 149.418C172.045 149.433 172.078 149.456 172.106 149.484C172.135 149.512 172.157 149.545 172.172 149.582C172.187 149.619 172.195 149.658 172.195 149.698Z" fill="#CCCCCC"/>
<path d="M106.248 58.1084H19.852C18.5022 58.1099 17.2081 58.6468 16.2536 59.6013C15.2991 60.5557 14.7623 61.8498 14.7607 63.1996V116.989C14.7623 118.339 15.2992 119.633 16.2536 120.588C17.2081 121.542 18.5022 122.079 19.852 122.081H106.248C107.598 122.079 108.892 121.542 109.847 120.588C110.801 119.633 111.338 118.339 111.339 116.989V63.1996C111.338 61.8498 110.801 60.5557 109.847 59.6012C108.892 58.6468 107.598 58.1099 106.248 58.1084Z" fill="#3199DD"/>
<path d="M106.248 58.1084H19.852C18.5022 58.1099 17.2081 58.6468 16.2536 59.6013C15.2991 60.5557 14.7623 61.8498 14.7607 63.1996V116.989C14.7623 118.339 15.2992 119.633 16.2536 120.588C17.2081 121.542 18.5022 122.079 19.852 122.081H106.248C107.598 122.079 108.892 121.542 109.847 120.588C110.801 119.633 111.338 118.339 111.339 116.989V63.1996C111.338 61.8498 110.801 60.5557 109.847 59.6012C108.892 58.6468 107.598 58.1099 106.248 58.1084ZM107.919 96.7463C107.898 102.222 105.732 107.472 101.885 111.37C98.0385 115.267 92.8173 117.502 87.342 117.594C78.5755 117.708 92.1924 117.753 81.6194 117.753C57.4424 117.753 32.2325 117.522 22.8264 117.372C21.5888 117.346 20.4103 116.838 19.5424 115.955C18.6744 115.073 18.186 113.886 18.1812 112.648V63.2036C18.1817 62.7603 18.3577 62.3353 18.6707 62.0215C18.9838 61.7077 19.4084 61.5306 19.8516 61.529H106.245C106.688 61.5296 107.113 61.7055 107.427 62.0185C107.74 62.3315 107.917 62.756 107.919 63.1991V96.7463Z" fill="#334155"/>
<path d="M95.6122 27.1345H29.7873C29.2049 27.1354 28.637 27.3159 28.161 27.6516C27.685 27.9872 27.3243 28.4615 27.1279 29.0099L16.9617 57.5317C16.81 57.9574 16.7627 58.4134 16.8238 58.8612C16.8848 59.309 17.0525 59.7356 17.3127 60.1051C17.5729 60.4746 17.918 60.7763 18.319 60.9847C18.72 61.1932 19.1652 61.3023 19.6172 61.303L107.899 61.4597H107.903C108.37 61.4596 108.83 61.3437 109.241 61.1222C109.653 60.9007 110.003 60.5806 110.26 60.1905C110.517 59.8005 110.674 59.3527 110.715 58.8874C110.757 58.422 110.682 57.9536 110.498 57.5242L110.344 57.5901L110.498 57.5242L98.2072 28.8457C97.9899 28.3376 97.6281 27.9045 97.1667 27.6003C96.7054 27.296 96.1648 27.1341 95.6122 27.1345Z" fill="#334155"/>
<path d="M110.727 58.1436C110.727 58.526 110.649 58.9044 110.498 59.256L98.2084 81.3319C97.9896 81.8389 97.6273 82.2709 97.1661 82.5746C96.7049 82.8783 96.165 83.0405 95.6128 83.0412H29.7889C29.2063 83.0406 28.638 82.8603 28.1617 82.5249C27.6853 82.1894 27.324 81.7152 27.1272 81.1668L16.9629 59.2484C16.8383 58.8992 16.7838 58.5289 16.8024 58.1586C16.821 57.7883 16.9124 57.4253 17.0714 57.0904C17.2304 56.7554 17.4538 56.4551 17.7289 56.2066C18.004 55.958 18.3254 55.7661 18.6747 55.6419C18.9769 55.5328 19.2957 55.4769 19.617 55.4768L30.401 55.4565L34.8024 55.4489L92.7199 55.3473L97.1239 55.3397L107.9 55.3193H107.903C108.652 55.3195 109.37 55.6171 109.9 56.1467C110.429 56.6763 110.727 57.3946 110.727 58.1436Z" fill="#334155"/>
<path d="M26.3283 98.457C27.6336 98.457 45.5581 99.5525 45.5581 100.858C45.5581 102.163 27.6336 103.184 26.3283 103.184C25.7015 103.184 25.1003 102.935 24.6571 102.492C24.2138 102.048 23.9648 101.447 23.9648 100.82C23.9648 100.194 24.2138 99.5925 24.6571 99.1493C25.1003 98.706 25.7015 98.457 26.3283 98.457Z" fill="#334155"/>
<path d="M91.513 9.78345H36.0108C34.5234 9.78517 33.0973 10.3768 32.0455 11.4286C30.9938 12.4804 30.4021 13.9064 30.4004 15.3939V83.0413H95.6122C96.1477 83.043 96.6723 82.8905 97.1234 82.6019V15.3939C97.1216 13.9064 96.53 12.4804 95.4782 11.4286C94.4264 10.3768 93.0004 9.78517 91.513 9.78345Z" fill="#E6E6E6"/>
<path d="M70.3294 14.3323H39.9128C38.5584 14.3336 37.2598 14.8721 36.3018 15.8295C35.3438 16.787 34.8047 18.0854 34.8027 19.4398V83.0414H92.7202V36.7231C92.7134 30.7868 90.3522 25.0956 86.1546 20.898C81.9569 16.7004 76.2657 14.3391 70.3294 14.3323Z" fill="white"/>
<path d="M82.8536 77.3926H44.6703C44.3402 77.3926 44.0237 77.5237 43.7903 77.7571C43.5569 77.9905 43.4258 78.307 43.4258 78.6371C43.4258 78.9671 43.5569 79.2837 43.7903 79.5171C44.0237 79.7505 44.3402 79.8816 44.6703 79.8816H82.8536C83.1836 79.8816 83.5002 79.7505 83.7336 79.5171C83.9669 79.2837 84.0981 78.9671 84.0981 78.6371C84.0981 78.307 83.9669 77.9905 83.7336 77.7571C83.5002 77.5237 83.1836 77.3926 82.8536 77.3926Z" fill="#E4E4E4"/>
<path d="M82.8529 72.4707H44.6696C44.3392 72.4707 44.0223 72.602 43.7887 72.8356C43.5551 73.0692 43.4238 73.3861 43.4238 73.7165C43.4238 74.0469 43.5551 74.3637 43.7887 74.5974C44.0223 74.831 44.3392 74.9622 44.6696 74.9622H82.8529C83.1833 74.9622 83.5001 74.831 83.7338 74.5974C83.9674 74.3637 84.0987 74.0469 84.0987 73.7165C84.0987 73.3861 83.9674 73.0692 83.7338 72.8356C83.5001 72.602 83.1833 72.4707 82.8529 72.4707Z" fill="#E4E4E4"/>
<path d="M61.2221 67.5508H44.6703C44.3402 67.5508 44.0237 67.6819 43.7903 67.9153C43.5569 68.1487 43.4258 68.4652 43.4258 68.7953C43.4258 69.1253 43.5569 69.4419 43.7903 69.6753C44.0237 69.9087 44.3402 70.0398 44.6703 70.0398H61.2221C61.5522 70.0398 61.8687 69.9087 62.1021 69.6753C62.3355 69.4419 62.4666 69.1253 62.4666 68.7953C62.4666 68.4652 62.3355 68.1487 62.1021 67.9153C61.8687 67.6819 61.5522 67.5508 61.2221 67.5508Z" fill="#E4E4E4"/>
<path d="M82.8529 57.2441H44.6696C44.3392 57.2441 44.0223 57.3754 43.7887 57.609C43.5551 57.8426 43.4238 58.1595 43.4238 58.4899C43.4238 58.8203 43.5551 59.1372 43.7887 59.3708C44.0223 59.6044 44.3392 59.7357 44.6696 59.7357H82.8529C83.1833 59.7357 83.5001 59.6044 83.7338 59.3708C83.9674 59.1372 84.0987 58.8203 84.0987 58.4899C84.0987 58.1595 83.9674 57.8426 83.7338 57.609C83.5001 57.3754 83.1833 57.2441 82.8529 57.2441Z" fill="#E4E4E4"/>
<path d="M82.8536 52.3252H44.6703C44.3402 52.3252 44.0237 52.4563 43.7903 52.6897C43.5569 52.9231 43.4258 53.2396 43.4258 53.5697C43.4258 53.8998 43.5569 54.2163 43.7903 54.4497C44.0237 54.6831 44.3402 54.8142 44.6703 54.8142H82.8536C83.1836 54.8142 83.5002 54.6831 83.7336 54.4497C83.9669 54.2163 84.0981 53.8998 84.0981 53.5697C84.0981 53.2396 83.9669 52.9231 83.7336 52.6897C83.5002 52.4563 83.1836 52.3252 82.8536 52.3252Z" fill="#E4E4E4"/>
<path d="M61.2214 47.4033H44.6696C44.3392 47.4033 44.0223 47.5346 43.7887 47.7682C43.5551 48.0018 43.4238 48.3187 43.4238 48.6491C43.4238 48.9795 43.5551 49.2964 43.7887 49.53C44.0223 49.7636 44.3392 49.8949 44.6696 49.8949H61.2214C61.5518 49.8949 61.8687 49.7636 62.1023 49.53C62.336 49.2964 62.4672 48.9795 62.4672 48.6491C62.4672 48.3187 62.336 48.0018 62.1023 47.7682C61.8687 47.5346 61.5518 47.4033 61.2214 47.4033Z" fill="#E4E4E4"/>
<path d="M82.8529 37.0967H44.6696C44.3392 37.0967 44.0223 37.2279 43.7887 37.4616C43.5551 37.6952 43.4238 38.0121 43.4238 38.3424C43.4238 38.6728 43.5551 38.9897 43.7887 39.2233C44.0223 39.457 44.3392 39.5882 44.6696 39.5882H82.8529C83.1833 39.5882 83.5001 39.457 83.7338 39.2233C83.9674 38.9897 84.0987 38.6728 84.0987 38.3424C84.0987 38.0121 83.9674 37.6952 83.7338 37.4616C83.5001 37.2279 83.1833 37.0967 82.8529 37.0967Z" fill="#3199DD"/>
<path d="M82.8529 32.1768H44.6696C44.3392 32.1768 44.0223 32.308 43.7887 32.5416C43.5551 32.7753 43.4238 33.0921 43.4238 33.4225C43.4238 33.7529 43.5551 34.0698 43.7887 34.3034C44.0223 34.537 44.3392 34.6683 44.6696 34.6683H82.8529C83.1833 34.6683 83.5001 34.537 83.7338 34.3034C83.9674 34.0698 84.0987 33.7529 84.0987 33.4225C84.0987 33.0921 83.9674 32.7753 83.7338 32.5416C83.5001 32.308 83.1833 32.1768 82.8529 32.1768Z" fill="#3199DD"/>
<path d="M61.2214 27.2549H44.6696C44.3392 27.2549 44.0223 27.3861 43.7887 27.6198C43.5551 27.8534 43.4238 28.1703 43.4238 28.5007C43.4238 28.8311 43.5551 29.1479 43.7887 29.3815C44.0223 29.6152 44.3392 29.7464 44.6696 29.7464H61.2214C61.5518 29.7464 61.8687 29.6152 62.1023 29.3815C62.336 29.1479 62.4672 28.8311 62.4672 28.5007C62.4672 28.1703 62.336 27.8534 62.1023 27.6198C61.8687 27.3861 61.5518 27.2549 61.2214 27.2549Z" fill="#3199DD"/>
<path d="M95.0422 19.3852C100.395 19.3852 104.735 15.0456 104.735 9.69258C104.735 4.33951 100.395 0 95.0422 0C89.6891 0 85.3496 4.33951 85.3496 9.69258C85.3496 15.0456 89.6891 19.3852 95.0422 19.3852Z" fill="#3199DD"/>
<path d="M93.7202 14.7367C93.5528 14.7367 93.3877 14.6977 93.2381 14.6229C93.0884 14.548 92.9582 14.4393 92.8578 14.3054L90.2135 10.7796C90.1281 10.6663 90.0658 10.5374 90.0304 10.4001C89.9949 10.2627 89.9869 10.1198 90.0067 9.97932C90.0266 9.83888 90.074 9.70375 90.1462 9.58166C90.2183 9.45957 90.3139 9.35292 90.4274 9.26783C90.5408 9.18273 90.67 9.12086 90.8074 9.08576C90.9448 9.05066 91.0878 9.04301 91.2282 9.06327C91.3686 9.08352 91.5036 9.13128 91.6255 9.2038C91.7474 9.27631 91.8538 9.37217 91.9385 9.48587L93.6685 11.7923L98.1118 5.12758C98.2704 4.88965 98.517 4.72448 98.7974 4.6684C99.0778 4.61232 99.369 4.66993 99.6069 4.82855C99.8449 4.98716 100.01 5.2338 100.066 5.5142C100.122 5.7946 100.065 6.08579 99.906 6.32372L94.6174 14.2566C94.5217 14.4 94.3931 14.5185 94.2422 14.602C94.0913 14.6854 93.9226 14.7315 93.7502 14.7364C93.7402 14.7365 93.7302 14.7367 93.7202 14.7367Z" fill="white"/>
</g>
<defs>
<clipPath id="clip0_1395_71805">
<rect width="171.39" height="150" fill="#FF0000" transform="translate(0.805176)"/>
</clipPath>
</defs>
</svg>
