<svg xmlns="http://www.w3.org/2000/svg" xmlns:xlink="http://www.w3.org/1999/xlink" width="800" zoomAndPan="magnify" viewBox="0 0 600 374.999991" height="500" preserveAspectRatio="xMidYMid meet" version="1.0"><defs><g/></defs><g fill="#00bf63" fill-opacity="1"><g transform="translate(9.703111, 356.762026)"><g><path d="M 157.242188 -308.316406 C 152.617188 -308.316406 149.917969 -306.390625 148.378906 -302.152344 L 105.214844 -191.542969 L 62.046875 -302.152344 C 60.507812 -306.390625 57.808594 -308.316406 53.183594 -308.316406 L 14.644531 -308.316406 C 8.863281 -308.316406 6.167969 -304.847656 8.480469 -299.453125 L 79.007812 -127.953125 L 79.007812 -7.707031 C 79.007812 -2.699219 81.703125 0 86.714844 0 L 123.710938 0 C 128.722656 0 131.421875 -2.699219 131.421875 -7.707031 L 131.421875 -127.953125 L 201.949219 -299.453125 C 204.261719 -304.847656 201.5625 -308.316406 195.78125 -308.316406 Z M 157.242188 -308.316406 "/></g></g></g><g fill="#00bf63" fill-opacity="1"><g transform="translate(220.111794, 356.762026)"><g><path d="M 17.726562 -308.316406 C 13.875 -308.316406 11.5625 -306.003906 11.5625 -302.152344 L 11.5625 -263.609375 C 11.5625 -259.757812 13.875 -257.445312 17.726562 -257.445312 L 62.433594 -257.445312 L 62.433594 -6.167969 C 62.433594 -1.925781 64.746094 0 68.601562 0 L 108.683594 0 C 112.921875 0 114.847656 -1.925781 114.847656 -6.167969 L 114.847656 -257.445312 L 159.554688 -257.445312 C 163.792969 -257.445312 165.71875 -259.757812 165.71875 -263.609375 L 165.71875 -302.152344 C 165.71875 -306.003906 163.792969 -308.316406 159.554688 -308.316406 Z M 17.726562 -308.316406 "/></g></g></g><g fill="#00bf63" fill-opacity="1"><g transform="translate(397.379139, 356.762026)"><g><path d="M 19.269531 -6.167969 C 19.269531 -1.925781 21.195312 0 25.4375 0 L 117.929688 0 C 154.160156 0 173.429688 -19.269531 173.429688 -55.496094 L 173.429688 -252.433594 C 173.429688 -288.660156 154.160156 -308.316406 117.929688 -308.316406 L 25.4375 -308.316406 C 21.195312 -308.316406 19.269531 -306.003906 19.269531 -302.152344 Z M 71.683594 -50.871094 L 71.683594 -257.445312 L 107.140625 -257.445312 C 117.160156 -257.445312 122.554688 -252.050781 122.554688 -241.644531 L 122.554688 -66.289062 C 122.554688 -55.882812 117.160156 -50.871094 107.140625 -50.871094 Z M 71.683594 -50.871094 "/></g></g></g></svg>