<svg width="20" height="24" viewBox="0 0 20 24" fill="none" xmlns="http://www.w3.org/2000/svg">
<mask id="path-1-inside-1_6971_9758" fill="white">
<path d="M15 14C15 14.2652 14.8946 14.5196 14.7071 14.7071C14.5196 14.8947 14.2652 15 14 15H6C5.73478 15 5.48043 14.8947 5.29289 14.7071C5.10536 14.5196 5 14.2652 5 14C5 13.7348 5.10536 13.4805 5.29289 13.2929C5.48043 13.1054 5.73478 13 6 13H14C14.2652 13 14.5196 13.1054 14.7071 13.2929C14.8946 13.4805 15 13.7348 15 14ZM11 17H6C5.73478 17 5.48043 17.1054 5.29289 17.2929C5.10536 17.4805 5 17.7348 5 18C5 18.2652 5.10536 18.5196 5.29289 18.7071C5.48043 18.8947 5.73478 19 6 19H11C11.2652 19 11.5196 18.8947 11.7071 18.7071C11.8946 18.5196 12 18.2652 12 18C12 17.7348 11.8946 17.4805 11.7071 17.2929C11.5196 17.1054 11.2652 17 11 17ZM20 10.485V19C19.9984 20.3256 19.4711 21.5965 18.5338 22.5338C17.5964 23.4711 16.3256 23.9984 15 24H5C3.67441 23.9984 2.40356 23.4711 1.46622 22.5338C0.528882 21.5965 0.00158786 20.3256 0 19V5.00002C0.00158786 3.67443 0.528882 2.40358 1.46622 1.46624C2.40356 0.528905 3.67441 0.00161091 5 2.30487e-05H9.515C10.4346 -0.00234388 11.3456 0.177611 12.1952 0.529482C13.0449 0.881354 13.8163 1.39816 14.465 2.05002L17.949 5.53602C18.6012 6.18426 19.1184 6.95548 19.4704 7.805C19.8225 8.65451 20.0025 9.56545 20 10.485ZM13.051 3.46402C12.7363 3.15918 12.3829 2.89695 12 2.68402V7.00002C12 7.26524 12.1054 7.51959 12.2929 7.70713C12.4804 7.89467 12.7348 8.00002 13 8.00002H17.316C17.103 7.61721 16.8404 7.26417 16.535 6.95002L13.051 3.46402ZM18 10.485C18 10.32 17.968 10.162 17.953 10H13C12.2044 10 11.4413 9.68395 10.8787 9.12134C10.3161 8.55873 10 7.79567 10 7.00002V2.04702C9.838 2.03202 9.679 2.00002 9.515 2.00002H5C4.20435 2.00002 3.44129 2.31609 2.87868 2.8787C2.31607 3.44131 2 4.20437 2 5.00002V19C2 19.7957 2.31607 20.5587 2.87868 21.1213C3.44129 21.684 4.20435 22 5 22H15C15.7956 22 16.5587 21.684 17.1213 21.1213C17.6839 20.5587 18 19.7957 18 19V10.485Z"/>
</mask>
<path d="M15 14C15 14.2652 14.8946 14.5196 14.7071 14.7071C14.5196 14.8947 14.2652 15 14 15H6C5.73478 15 5.48043 14.8947 5.29289 14.7071C5.10536 14.5196 5 14.2652 5 14C5 13.7348 5.10536 13.4805 5.29289 13.2929C5.48043 13.1054 5.73478 13 6 13H14C14.2652 13 14.5196 13.1054 14.7071 13.2929C14.8946 13.4805 15 13.7348 15 14ZM11 17H6C5.73478 17 5.48043 17.1054 5.29289 17.2929C5.10536 17.4805 5 17.7348 5 18C5 18.2652 5.10536 18.5196 5.29289 18.7071C5.48043 18.8947 5.73478 19 6 19H11C11.2652 19 11.5196 18.8947 11.7071 18.7071C11.8946 18.5196 12 18.2652 12 18C12 17.7348 11.8946 17.4805 11.7071 17.2929C11.5196 17.1054 11.2652 17 11 17ZM20 10.485V19C19.9984 20.3256 19.4711 21.5965 18.5338 22.5338C17.5964 23.4711 16.3256 23.9984 15 24H5C3.67441 23.9984 2.40356 23.4711 1.46622 22.5338C0.528882 21.5965 0.00158786 20.3256 0 19V5.00002C0.00158786 3.67443 0.528882 2.40358 1.46622 1.46624C2.40356 0.528905 3.67441 0.00161091 5 2.30487e-05H9.515C10.4346 -0.00234388 11.3456 0.177611 12.1952 0.529482C13.0449 0.881354 13.8163 1.39816 14.465 2.05002L17.949 5.53602C18.6012 6.18426 19.1184 6.95548 19.4704 7.805C19.8225 8.65451 20.0025 9.56545 20 10.485ZM13.051 3.46402C12.7363 3.15918 12.3829 2.89695 12 2.68402V7.00002C12 7.26524 12.1054 7.51959 12.2929 7.70713C12.4804 7.89467 12.7348 8.00002 13 8.00002H17.316C17.103 7.61721 16.8404 7.26417 16.535 6.95002L13.051 3.46402ZM18 10.485C18 10.32 17.968 10.162 17.953 10H13C12.2044 10 11.4413 9.68395 10.8787 9.12134C10.3161 8.55873 10 7.79567 10 7.00002V2.04702C9.838 2.03202 9.679 2.00002 9.515 2.00002H5C4.20435 2.00002 3.44129 2.31609 2.87868 2.8787C2.31607 3.44131 2 4.20437 2 5.00002V19C2 19.7957 2.31607 20.5587 2.87868 21.1213C3.44129 21.684 4.20435 22 5 22H15C15.7956 22 16.5587 21.684 17.1213 21.1213C17.6839 20.5587 18 19.7957 18 19V10.485Z" fill="#374151"/>
<path d="M20 19L41.3333 19.0256L41.3333 19.0128V19H20ZM15 24V45.3334H15.0128L15.0256 45.3333L15 24ZM5 24L4.97445 45.3333L4.98722 45.3334H5V24ZM0 19H-21.3333V19.0128L-21.3333 19.0256L0 19ZM0 5.00002L-21.3333 4.97447L-21.3333 4.98725V5.00002H0ZM5 2.30487e-05V-21.3333H4.98722L4.97445 -21.3333L5 2.30487e-05ZM9.515 2.30487e-05V21.3334H9.54245L9.56991 21.3333L9.515 2.30487e-05ZM14.465 2.05002L-0.656867 17.098L-0.640588 17.1143L-0.624274 17.1306L14.465 2.05002ZM17.949 5.53602L2.85973 20.6166L2.88506 20.642L2.91047 20.6672L17.949 5.53602ZM13.051 3.46402L28.1403 -11.6166L28.0179 -11.7391L27.8935 -11.8595L13.051 3.46402ZM12 2.68402L22.3672 -15.9609L-9.33333 -33.5874V2.68402H12ZM17.316 8.00002V29.3334H53.6031L35.957 -2.37418L17.316 8.00002ZM16.535 6.95002L31.8324 -7.91946L31.7291 -8.02575L31.6243 -8.13059L16.535 6.95002ZM17.953 10L39.1955 8.03313L37.4023 -11.3333H17.953V10ZM13 10V31.3334V10ZM10 2.04702H31.3333V-17.4023L11.9669 -19.1954L10 2.04702ZM5 2.00002V-19.3333V2.00002ZM2 5.00002H-19.3333H2ZM2 19H23.3333H2ZM5 22V43.3334V22ZM15 22V43.3334V22ZM18 19H39.3333H18ZM-6.33333 14C-6.33333 8.60732 -4.1911 3.43545 -0.377838 -0.377816L29.7921 29.7921C33.9804 25.6037 36.3333 19.9232 36.3333 14H-6.33333ZM-0.377838 -0.377816C3.43541 -4.19106 8.60727 -6.33331 14 -6.33331V36.3334C19.9232 36.3334 25.6037 33.9804 29.7921 29.7921L-0.377838 -0.377816ZM14 -6.33331H6V36.3334H14V-6.33331ZM6 -6.33331C11.3928 -6.33331 16.5646 -4.19104 20.3778 -0.377816L-9.79205 29.7921C-5.60375 33.9804 0.0768166 36.3334 6 36.3334V-6.33331ZM20.3778 -0.377816C24.1911 3.43541 26.3333 8.60727 26.3333 14H-16.3333C-16.3333 19.9232 -13.9804 25.6038 -9.79205 29.7921L20.3778 -0.377816ZM26.3333 14C26.3333 19.3928 24.1911 24.5646 20.3778 28.3779L-9.79205 -1.79203C-13.9804 2.39627 -16.3333 8.07684 -16.3333 14H26.3333ZM20.3778 28.3779C16.5646 32.1911 11.3928 34.3334 6 34.3334V-8.33331C0.0768166 -8.33331 -5.60375 -5.98033 -9.79205 -1.79203L20.3778 28.3779ZM6 34.3334H14V-8.33331H6V34.3334ZM14 34.3334C8.60727 34.3334 3.43541 32.1911 -0.377838 28.3779L29.7921 -1.79203C25.6037 -5.98035 19.9232 -8.33331 14 -8.33331V34.3334ZM-0.377838 28.3779C-4.1911 24.5646 -6.33333 19.3927 -6.33333 14H36.3333C36.3333 8.07689 33.9804 2.39631 29.7921 -1.79203L-0.377838 28.3779ZM11 -4.33331H6V38.3334H11V-4.33331ZM6 -4.33331C0.0768687 -4.33331 -5.60371 -1.98037 -9.79205 2.20797L20.3778 32.3779C16.5646 36.1911 11.3927 38.3334 6 38.3334V-4.33331ZM-9.79205 2.20797C-13.9804 6.39629 -16.3333 12.0769 -16.3333 18H26.3333C26.3333 23.3928 24.1911 28.5646 20.3778 32.3779L-9.79205 2.20797ZM-16.3333 18C-16.3333 23.9232 -13.9804 29.6038 -9.79205 33.7921L20.3778 3.62219C24.1911 7.43543 26.3333 12.6073 26.3333 18H-16.3333ZM-9.79205 33.7921C-5.60371 37.9804 0.0768687 40.3334 6 40.3334V-2.33331C11.3927 -2.33331 16.5646 -0.191081 20.3778 3.62219L-9.79205 33.7921ZM6 40.3334H11V-2.33331H6V40.3334ZM11 40.3334C16.9231 40.3334 22.6037 37.9804 26.7921 33.7921L-3.37784 3.62219C0.435428 -0.191081 5.6073 -2.33331 11 -2.33331V40.3334ZM26.7921 33.7921C30.9804 29.6038 33.3333 23.9232 33.3333 18H-9.33333C-9.33333 12.6073 -7.19108 7.43543 -3.37784 3.62219L26.7921 33.7921ZM33.3333 18C33.3333 12.0769 30.9804 6.39629 26.7921 2.20797L-3.37784 32.3779C-7.19108 28.5646 -9.33333 23.3928 -9.33333 18H33.3333ZM26.7921 2.20797C22.6037 -1.98037 16.9231 -4.33331 11 -4.33331V38.3334C5.6073 38.3334 0.435428 36.1911 -3.37784 32.3779L26.7921 2.20797ZM-1.33333 10.485V19H41.3333V10.485H-1.33333ZM-1.33332 18.9745C-1.32814 14.651 0.391649 10.506 3.44884 7.44886L33.6187 37.6187C38.5506 32.6869 41.325 26.0003 41.3333 19.0256L-1.33332 18.9745ZM3.44884 7.44886C6.50602 4.39167 10.651 2.67188 14.9744 2.6667L15.0256 45.3333C22.0002 45.325 28.6869 42.5506 33.6187 37.6187L3.44884 7.44886ZM15 2.66669H5V45.3334H15V2.66669ZM5.02555 2.6667C9.34904 2.67188 13.494 4.39167 16.5512 7.44886L-13.6187 37.6187C-8.68686 42.5506 -2.00023 45.325 4.97445 45.3333L5.02555 2.6667ZM16.5512 7.44886C19.6083 10.506 21.3281 14.651 21.3333 18.9745L-21.3333 19.0256C-21.325 26.0003 -18.5506 32.6869 -13.6187 37.6187L16.5512 7.44886ZM21.3333 19V5.00002H-21.3333V19H21.3333ZM21.3333 5.02558C21.3281 9.34908 19.6083 13.494 16.5512 16.5512L-13.6187 -13.6187C-18.5506 -8.68685 -21.325 -2.00022 -21.3333 4.97447L21.3333 5.02558ZM16.5512 16.5512C13.494 19.6084 9.34905 21.3282 5.02555 21.3333L4.97445 -21.3333C-2.00024 -21.3249 -8.68687 -18.5506 -13.6187 -13.6187L16.5512 16.5512ZM5 21.3334H9.515V-21.3333H5V21.3334ZM9.56991 21.3333C7.66996 21.3382 5.78789 20.9664 4.03252 20.2394L20.3579 -19.1805C16.9033 -20.6112 13.1993 -21.3429 9.46009 -21.3332L9.56991 21.3333ZM4.03252 20.2394C2.27716 19.5124 0.683306 18.4447 -0.656867 17.098L29.5869 -12.9979C26.9493 -15.6484 23.8126 -17.7497 20.3579 -19.1805L4.03252 20.2394ZM-0.624274 17.1306L2.85973 20.6166L33.0383 -9.54459L29.5543 -13.0306L-0.624274 17.1306ZM2.91047 20.6672C1.56093 19.326 0.490938 17.7302 -0.237515 15.9725L39.1784 -0.362509C37.7458 -3.81928 35.6415 -6.95744 32.9875 -9.5952L2.91047 20.6672ZM-0.237515 15.9725C-0.965966 14.2148 -1.33841 12.33 -1.33326 10.4273L41.3333 10.5428C41.3434 6.80093 40.6109 3.09426 39.1784 -0.362509L-0.237515 15.9725ZM27.8935 -11.8595C26.2387 -13.4624 24.3807 -14.8413 22.3672 -15.9609L1.63281 21.3289C0.385148 20.6352 -0.766111 19.7808 -1.79151 18.7876L27.8935 -11.8595ZM-9.33333 2.68402V7.00002H33.3333V2.68402H-9.33333ZM-9.33333 7.00002C-9.33333 12.9232 -6.98035 18.6038 -2.79205 22.7921L27.3778 -7.37782C31.1911 -3.56459 33.3333 1.60727 33.3333 7.00002H-9.33333ZM-2.79205 22.7921C1.39625 26.9804 7.07682 29.3334 13 29.3334V-13.3333C18.3927 -13.3333 23.5646 -11.191 27.3778 -7.37782L-2.79205 22.7921ZM13 29.3334H17.316V-13.3333H13V29.3334ZM35.957 -2.37418C34.8319 -4.39589 33.445 -6.26039 31.8324 -7.91946L1.23763 21.8195C0.235679 20.7887 -0.625961 19.6303 -1.32501 18.3742L35.957 -2.37418ZM31.6243 -8.13059L28.1403 -11.6166L-2.03827 18.5446L1.44573 22.0306L31.6243 -8.13059ZM39.3333 10.485C39.3333 9.08588 39.1983 7.98189 39.1562 7.63985C39.1443 7.54254 39.1338 7.46164 39.13 7.43244C39.1234 7.38213 39.1273 7.41151 39.1295 7.42924C39.1356 7.47682 39.166 7.71533 39.1955 8.03313L-3.28947 11.9669C-3.25254 12.3657 -3.21244 12.6847 -3.19617 12.8126C-3.19165 12.8482 -3.18776 12.8783 -3.18535 12.8968C-3.18414 12.9061 -3.18303 12.9146 -3.18237 12.9197C-3.18156 12.9259 -3.1813 12.9279 -3.18105 12.9299C-3.17963 12.9408 -3.18497 12.9001 -3.19199 12.8429C-3.2057 12.7313 -3.24057 12.4404 -3.27101 12.0588C-3.30219 11.668 -3.33333 11.1292 -3.33333 10.485H39.3333ZM17.953 -11.3333H13V31.3334H17.953V-11.3333ZM13 -11.3333C17.8623 -11.3333 22.5254 -9.40178 25.9636 -5.9636L-4.20627 24.2063C0.357126 28.7697 6.54641 31.3334 13 31.3334V-11.3333ZM25.9636 -5.9636C29.4018 -2.52543 31.3333 2.13773 31.3333 7.00002H-11.3333C-11.3333 13.4536 -8.76966 19.6429 -4.20627 24.2063L25.9636 -5.9636ZM31.3333 7.00002V2.04702H-11.3333V7.00002H31.3333ZM11.9669 -19.1954C12.2824 -19.1662 12.5191 -19.136 12.5655 -19.1301C12.5829 -19.1279 12.6117 -19.1242 12.5618 -19.1307C12.5327 -19.1344 12.4523 -19.1449 12.3558 -19.1567C12.0219 -19.1977 10.9158 -19.3333 9.515 -19.3333V23.3334C8.86731 23.3334 8.32715 23.3019 7.93889 23.2709C7.55941 23.2406 7.27034 23.206 7.16075 23.1925C7.10442 23.1856 7.06429 23.1803 7.07544 23.1818C7.07745 23.1821 7.07949 23.1823 7.08572 23.1831C7.09084 23.1838 7.09933 23.1849 7.10865 23.1861C7.12716 23.1885 7.15706 23.1924 7.19242 23.1969C7.31932 23.213 7.63661 23.2528 8.0331 23.2895L11.9669 -19.1954ZM9.515 -19.3333H5V23.3334H9.515V-19.3333ZM5 -19.3333C-1.4536 -19.3333 -7.64288 -16.7696 -12.2063 -12.2062L17.9636 17.9636C14.5255 21.4018 9.8623 23.3334 5 23.3334V-19.3333ZM-12.2063 -12.2062C-16.7696 -7.64286 -19.3333 -1.45358 -19.3333 5.00002H23.3333C23.3333 9.86233 21.4018 14.5255 17.9636 17.9636L-12.2063 -12.2062ZM-19.3333 5.00002V19H23.3333V5.00002H-19.3333ZM-19.3333 19C-19.3333 25.4536 -16.7697 31.6429 -12.2063 36.2063L17.9636 6.0364C21.4018 9.47457 23.3333 14.1377 23.3333 19H-19.3333ZM-12.2063 36.2063C-7.64288 40.7697 -1.4536 43.3334 5 43.3334V0.666689C9.8623 0.666689 14.5255 2.59823 17.9636 6.0364L-12.2063 36.2063ZM5 43.3334H15V0.666689H5V43.3334ZM15 43.3334C21.4536 43.3334 27.6429 40.7697 32.2063 36.2063L2.03638 6.0364C5.47455 2.59822 10.1377 0.666689 15 0.666689V43.3334ZM32.2063 36.2063C36.7697 31.6429 39.3333 25.4536 39.3333 19H-3.33333C-3.33333 14.1377 -1.4018 9.47457 2.03638 6.0364L32.2063 36.2063ZM39.3333 19V10.485H-3.33333V19H39.3333Z" fill="#3199DD" mask="url(#path-1-inside-1_6971_9758)"/>
</svg>
