<svg width="28" height="16" viewBox="0 0 28 16" fill="white" xmlns="http://www.w3.org/2000/svg">
<path d="M21.8625 13.3892C22.5049 13.6794 23.1192 13.9631 23.7392 14.2346C24.1701 14.4233 24.6311 14.48 25.0926 14.412C25.5882 14.339 26.0722 14.2041 26.524 13.9821C26.6317 13.929 26.7376 13.8683 26.8325 13.7957C26.8938 13.7488 26.9232 13.7593 26.9714 13.806C27.1292 13.958 27.1451 13.9913 27.0555 14.1739C26.8013 14.6917 26.4679 15.1539 26.0153 15.5254C25.77 15.7266 25.477 15.8361 25.173 15.9269C24.847 16.0243 24.5152 16.0086 24.189 15.9743C23.9971 15.954 23.8111 15.861 23.6284 15.7866C23.284 15.6461 23.0167 15.397 22.7387 15.1637C22.3497 14.8373 21.9661 14.5048 21.5709 14.1859C21.2983 13.966 21.0069 13.7681 20.6594 13.6745C20.5171 13.6363 20.3711 13.6032 20.2246 13.5904C19.9041 13.5627 19.5799 13.5668 19.2615 13.5255C18.8891 13.4771 18.5198 13.4022 18.1524 13.3243C17.7352 13.2359 17.3436 13.0741 16.9615 12.89C16.2691 12.5565 15.6637 12.1071 15.121 11.5731C14.5604 11.0217 14.0902 10.4049 13.7561 9.69885C13.6067 9.38302 13.5022 9.04565 13.3889 8.71443C13.2422 8.28477 13.1649 7.84101 13.1486 7.38777C13.136 7.03527 13.0907 6.68047 13.119 6.33105C13.1578 5.85063 13.2327 5.37406 13.3722 4.90492C13.5402 4.34016 13.7708 3.80514 14.0897 3.3137C14.3379 2.93146 14.6267 2.57051 14.9294 2.22673C15.4832 1.59788 16.1509 1.10003 16.9143 0.738815C17.2663 0.572438 17.6408 0.447847 18.013 0.327614C18.296 0.23635 18.5908 0.177643 18.8825 0.113297C19.0222 0.0825337 19.1658 0.0651013 19.3089 0.0545905C19.604 0.0327999 19.9004 -0.00155234 20.195 0.00870206C20.5765 0.0220328 20.9623 0.0451052 21.3363 0.115091C22.1133 0.260191 22.8471 0.524755 23.5356 0.918267C24.3195 1.36638 24.9998 1.92833 25.5641 2.61845C25.9559 3.09758 26.2795 3.62235 26.4981 4.20301C26.5893 4.44527 26.7025 4.68189 26.7675 4.93056C26.9009 5.44046 27.0222 5.95574 27.0123 6.48666C27.0041 6.91683 26.9955 7.3488 26.9481 7.7759C26.8873 8.32425 26.729 8.85056 26.5143 9.36405C26.2436 10.0116 25.8759 10.5966 25.4197 11.1301C24.8282 11.8218 24.1347 12.3919 23.3126 12.8082C22.8878 13.0233 22.443 13.1848 21.986 13.3176C21.9461 13.3292 21.9126 13.3594 21.8625 13.3892ZM24.5795 6.84018C24.5506 6.47308 24.5412 6.19108 24.5034 5.91293C24.451 5.52634 24.3978 5.1377 24.3069 4.7588C24.2272 4.42707 24.0991 4.1061 23.9851 3.78283C23.8315 3.34702 23.6174 2.94018 23.365 2.55102C23.0369 2.04497 22.6325 1.60941 22.1516 1.23718C21.7323 0.912627 21.2692 0.673956 20.7516 0.554492C20.1661 0.419647 19.5828 0.476046 19.019 0.67088C18.5326 0.839052 18.096 1.09413 17.7131 1.43893C17.0619 2.02574 16.603 2.7397 16.2453 3.52263C16.0293 3.99459 15.8608 4.48398 15.7741 4.99362C15.6905 5.4866 15.6192 5.98343 15.582 6.48154C15.5571 6.81403 15.5966 7.15166 15.6166 7.48672C15.6302 7.7195 15.647 7.95356 15.6842 8.18351C15.7659 8.68623 15.8784 9.18408 16.0747 9.65681C16.2385 10.0508 16.3996 10.4502 16.6132 10.8189C17.1195 11.6923 17.8001 12.3986 18.7491 12.8341C19.1674 13.0261 19.6045 13.122 20.0574 13.1248C20.3855 13.1269 20.7144 13.0731 21.0323 12.9741C21.7265 12.758 22.2981 12.3632 22.7722 11.83C23.3383 11.1932 23.7576 10.4743 24.0529 9.67886C24.2162 9.23869 24.3444 8.79108 24.4172 8.33297C24.5003 7.81179 24.5333 7.28317 24.5795 6.84018Z" fill="white"/>
<path d="M17.3671 13.2815C17.1611 13.3307 16.9834 13.3853 16.8013 13.4141C16.1896 13.511 15.5735 13.5661 14.9537 13.5461C14.5398 13.5325 14.1226 13.5225 13.7148 13.4607C12.9428 13.3438 12.1935 13.1403 11.4778 12.8208C10.3144 12.3017 9.31489 11.578 8.51478 10.5992C8.12403 10.1214 7.81609 9.59609 7.59752 9.02133C7.44159 8.61141 7.32445 8.1938 7.25133 7.7603C7.17926 7.33397 7.13759 6.9079 7.15803 6.47799C7.1845 5.92066 7.28592 5.3782 7.47435 4.84702C7.65125 4.3484 7.88345 3.87901 8.18798 3.4496C8.42882 3.11018 8.70138 2.78897 8.9873 2.48441C9.57224 1.8612 10.2515 1.34848 11.0288 0.975988C11.4531 0.772695 11.8942 0.596832 12.341 0.446348C12.7114 0.321501 13.1021 0.25536 13.4818 0.156662C13.882 0.0528358 14.2903 0.0389923 14.7005 0.0305325C14.8213 0.0279689 14.9429 -0.00638337 15.0621 0.00105107C15.5223 0.0300197 15.9833 0.0569376 16.4409 0.110773C16.7536 0.147433 17.061 0.227673 17.3799 0.312528C17.2683 0.356366 17.1553 0.397384 17.0453 0.444554C16.8754 0.517616 16.7106 0.602472 16.5379 0.666818C16.4582 0.696556 16.3568 0.716552 16.2782 0.695018C15.8547 0.579143 15.4275 0.496339 14.9856 0.499415C14.6234 0.501978 14.2717 0.568888 13.9187 0.64272C13.4541 0.739624 13.0287 0.925229 12.6317 1.16723C11.8227 1.66021 11.1659 2.30906 10.6609 3.1007C10.3931 3.52062 10.1742 3.96668 10.0243 4.4389C9.91661 4.77806 9.84323 5.12825 9.76775 5.47639C9.65899 5.9768 9.60841 6.4867 9.62702 6.99609C9.64169 7.40114 9.7135 7.80439 9.76644 8.20739C9.81964 8.61321 9.96404 8.99493 10.1095 9.37537C10.2874 9.8404 10.5272 10.2747 10.8061 10.6882C11.1604 11.214 11.5758 11.688 12.0892 12.0728C12.5103 12.3884 12.9695 12.634 13.4685 12.8167C14.1344 13.0605 14.8205 13.1398 15.5221 13.0834C15.8017 13.0608 16.0774 12.9867 16.3539 12.9301C16.4619 12.908 16.5533 12.9224 16.6542 12.9706C16.8408 13.0595 17.0379 13.1274 17.2295 13.2062C17.2712 13.2238 17.3089 13.2495 17.3671 13.2815Z" fill="white"/>
<path d="M0.0165582 13.5802C-0.0290425 13.4605 0.02311 13.4128 0.12925 13.3974C0.279417 13.3756 0.431944 13.3623 0.578443 13.3259C1.05384 13.2077 1.37829 12.9188 1.54706 12.4681C1.67758 12.1192 1.80442 11.769 1.92812 11.418C2.06754 11.0227 2.20015 10.6251 2.33826 10.2293C2.48188 9.81758 2.6289 9.40715 2.77357 8.99569C2.89988 8.63627 3.02437 8.27634 3.15095 7.91693C3.2508 7.63314 3.35222 7.3496 3.45312 7.06632C3.55952 6.76766 3.66619 6.46875 3.77285 6.17009C3.88109 5.86733 3.99116 5.56508 4.09703 5.26155C4.20291 4.95828 4.30119 4.65269 4.4089 4.34993C4.51216 4.05948 4.62721 3.77287 4.7302 3.48216C4.83608 3.18298 4.932 2.88048 5.03526 2.58054C5.11519 2.34853 5.2001 2.11832 5.28265 1.88708C5.39063 1.58458 5.49886 1.28233 5.60579 0.979569C5.7059 0.696035 5.79946 0.410194 5.90874 0.130249C5.92761 0.0820533 6.00624 0.0371903 6.06389 0.0271922C6.16112 0.0100161 6.26385 0.0210396 6.36449 0.021296C6.56629 0.022065 6.56471 0.0292431 6.62787 0.208951C6.82967 0.783454 7.03985 1.35514 7.24296 1.92913C7.35015 2.23189 7.44816 2.53798 7.55247 2.84177C7.59361 2.96149 7.63528 3.08172 7.68691 3.19734C7.73251 3.29937 7.73146 3.38166 7.66752 3.48318C7.38395 3.9336 7.14783 4.41018 6.98953 4.91444C6.87186 5.28949 6.79586 5.68019 6.73978 6.06908C6.69182 6.40081 6.69916 6.73998 6.6816 7.07607C6.67976 7.1117 6.67478 7.14708 6.6622 7.18297C6.21144 5.98474 5.77849 4.78293 5.33271 3.58547C5.31463 3.58983 5.2968 3.59444 5.27872 3.5988C5.17835 3.88105 5.07771 4.1633 4.97812 4.44581C4.84551 4.82138 4.71264 5.19695 4.58161 5.57328C4.46184 5.91757 4.346 6.26315 4.22493 6.60693C4.0973 6.96942 3.9639 7.33012 3.83627 7.69287C3.73642 7.97666 3.64103 8.26199 3.54485 8.54706C3.51523 8.63473 3.5493 8.67498 3.64548 8.6737C3.83339 8.67114 4.02103 8.67319 4.20894 8.67319C5.07378 8.67319 5.93862 8.67524 6.80346 8.67088C6.9345 8.67011 7.01836 8.69036 7.04064 8.83828C7.05453 8.93109 7.10747 9.01825 7.15307 9.13361C7.08362 9.13361 7.03382 9.13361 6.98377 9.13361C5.822 9.13361 4.65997 9.13617 3.4982 9.13028C3.36742 9.12951 3.30531 9.16617 3.26469 9.28743C3.13103 9.68837 2.98899 10.0865 2.84642 10.4846C2.68656 10.9312 2.52171 11.3762 2.36159 11.8228C2.27039 12.0776 2.17525 12.3317 2.09847 12.5906C2.01801 12.8626 2.1176 13.0662 2.37181 13.2067C2.56102 13.3115 2.76544 13.3602 2.98008 13.3784C3.07049 13.3861 3.16379 13.3938 3.2487 13.4215C3.28775 13.4343 3.31003 13.4956 3.33991 13.5351C3.30741 13.5545 3.27491 13.5907 3.24241 13.5909C2.18547 13.5935 1.12853 13.5925 0.0713314 13.5917C0.0545587 13.5915 0.037524 13.5848 0.0165582 13.5802Z" fill="white"/>
<path d="M12.2785 13.5934C12.2271 13.5934 12.1757 13.5934 12.1241 13.5934C10.5834 13.5934 9.04267 13.5934 7.50168 13.5934C7.47547 13.5934 7.44507 13.6013 7.4241 13.5911C7.38768 13.5731 7.35701 13.5441 7.32373 13.5195C7.35492 13.4872 7.38112 13.4344 7.41781 13.4265C7.60756 13.3844 7.80385 13.3678 7.99018 13.316C8.21635 13.2532 8.42758 13.1593 8.54211 12.9299C8.61942 12.7753 8.6092 12.6197 8.55862 12.4708C8.4192 12.0588 8.26798 11.6502 8.11729 11.242C8.01351 10.9608 7.90134 10.6824 7.79599 10.4017C7.78026 10.3599 7.78131 10.3122 7.77004 10.2363C7.95218 10.4491 8.11074 10.637 8.27243 10.8224C8.83275 11.4648 9.47954 12.0085 10.2257 12.4338C10.5008 12.5907 10.7925 12.7194 11.0719 12.8697C11.1641 12.9191 11.2519 12.9863 11.3224 13.0624C11.4768 13.2288 11.66 13.3362 11.8856 13.3739C11.997 13.3924 12.1118 13.3978 12.2193 13.4285C12.2604 13.4403 12.2856 13.5059 12.3181 13.547C12.305 13.5626 12.2916 13.578 12.2785 13.5934Z" fill="white"/>
<path d="M18.6192 7.10951C19.379 7.10976 20.1384 7.10951 20.8982 7.10977C20.9417 7.10977 20.9878 7.10464 21.0279 7.1172C21.0541 7.1254 21.0824 7.15796 21.0892 7.18462C21.0934 7.20052 21.0612 7.24025 21.0397 7.24512C20.9469 7.26563 20.8523 7.28153 20.7577 7.29152C20.5284 7.31562 20.3201 7.38997 20.1439 7.5366C19.9463 7.70119 19.868 7.9232 19.8675 8.16853C19.8646 9.4752 19.8643 10.7821 19.8688 12.0888C19.8693 12.2126 19.8295 12.2839 19.7183 12.34C19.4882 12.4567 19.2652 12.5869 19.0362 12.7061C19.0039 12.723 18.9473 12.723 18.9143 12.7069C18.3147 12.4131 17.8291 11.9906 17.4551 11.4471C17.42 11.3958 17.4069 11.3212 17.4066 11.2574C17.4037 10.3009 17.4037 9.3442 17.405 8.38746C17.4053 8.14982 17.3652 7.92653 17.2386 7.7158C17.0719 7.43868 16.8062 7.34228 16.5074 7.29691C16.4262 7.2846 16.3402 7.30203 16.2595 7.28819C16.2202 7.28153 16.1882 7.23461 16.1528 7.2059C16.189 7.17334 16.2233 7.13873 16.2621 7.10925C16.2729 7.10105 16.2959 7.10874 16.3135 7.10874C17.0824 7.10951 17.8508 7.10951 18.6192 7.10951Z" fill="white"/>
<path d="M19.9232 3.87371C19.6593 3.93114 19.632 3.92037 19.5172 3.69606C19.2643 3.20051 18.9897 2.71753 18.6146 2.29889C18.4333 2.09637 18.2341 1.9082 18.0328 1.72439C17.9477 1.64646 17.9448 1.60339 18.0321 1.52879C18.3049 1.2955 18.5748 1.06068 18.9121 0.915576C19.0573 0.853024 19.139 0.872507 19.1799 1.01581C19.258 1.28832 19.323 1.56468 19.394 1.83898C19.4577 2.0856 19.5227 2.33196 19.5864 2.57858C19.6763 2.92723 19.7654 3.27614 19.8553 3.62479C19.8765 3.70554 19.8993 3.78604 19.9232 3.87371Z" fill="white"/>
</svg>
