<svg width="27" height="16" viewBox="0 0 27 16" fill="none" xmlns="http://www.w3.org/2000/svg">
<g clip-path="url(#clip0_7940_1292)">
<path d="M26.8338 0.117506C26.8338 0.0790493 26.8295 0.0405929 26.8273 0C24.7576 0 22.7007 0 20.6353 0C20.6353 5.33476 20.6353 10.6588 20.6353 15.9979C20.6802 15.9979 20.7186 15.9979 20.7593 15.9979C22.7435 15.9979 24.7255 15.9979 26.7098 16C26.8145 16 26.838 15.9701 26.838 15.8697C26.8338 10.6182 26.8338 5.36894 26.8338 0.117506ZM25.1917 14.6968C24.5887 14.6968 23.99 14.6968 23.3806 14.6968C23.3806 10.8362 23.3806 6.97556 23.3806 3.10001C22.9338 3.10001 22.5061 3.10001 22.0721 3.10001C22.0721 2.49326 22.0721 1.89718 22.0721 1.29256C23.1112 1.29256 24.1482 1.29256 25.1917 1.29256C25.1917 5.75991 25.1917 10.2251 25.1917 14.6968Z" fill="#3B82F6"/>
<path d="M11.6787 7.44765C11.9054 7.18913 12.132 6.93276 12.3565 6.67424C12.6644 6.31959 12.9659 5.96066 13.2738 5.60387C13.4491 5.40305 13.6287 5.20649 13.804 5.00566C13.958 4.83047 14.1098 4.65315 14.2659 4.48009C14.2915 4.45232 14.3343 4.42455 14.3707 4.42455C14.8368 4.42027 15.3029 4.42241 15.7925 4.42241C15.7156 4.51428 15.6514 4.59333 15.583 4.67024C15.2901 5.00139 14.9971 5.33041 14.7021 5.66156C14.5631 5.81752 14.422 5.96921 14.283 6.12517C14.0008 6.44137 13.7228 6.7597 13.4406 7.0759C13.3016 7.23186 13.1605 7.38569 13.0215 7.53951C12.9659 7.60147 12.9103 7.66343 12.8504 7.72752C13.9516 9.10341 15.0463 10.4729 16.156 11.8616C16.0962 11.8616 16.0598 11.8616 16.0256 11.8616C15.5744 11.8616 15.1233 11.8637 14.6721 11.8573C14.6187 11.8573 14.5503 11.8231 14.5161 11.7825C14.2702 11.4749 14.0307 11.1608 13.7912 10.8489C13.5218 10.4985 13.2567 10.1481 12.9873 9.79776C12.782 9.5307 12.5746 9.26792 12.3672 9.00299C12.132 8.70175 11.8968 8.40265 11.6509 8.08859C11.6509 9.3491 11.6509 10.5968 11.6509 11.8509C11.2447 11.8509 10.847 11.8509 10.4429 11.8509C10.4429 9.38115 10.4429 6.90926 10.4429 4.42668C10.8384 4.42668 11.234 4.42668 11.6467 4.42668C11.6467 4.46941 11.6467 4.51214 11.6467 4.55487C11.6467 5.47782 11.6467 6.40291 11.6467 7.32587C11.6467 7.37073 11.6509 7.41346 11.6531 7.45833C11.6616 7.45833 11.6702 7.45192 11.6787 7.44765Z" fill="white"/>
<path d="M3.6199 4.11914C4.82795 6.71708 6.02104 9.28725 7.21627 11.8638C6.79933 11.8638 6.39308 11.8638 5.98683 11.8617C5.96117 11.8617 5.92055 11.8318 5.90986 11.8061C5.7217 11.3895 5.53782 10.9729 5.35394 10.5563C5.27483 10.379 5.20213 10.1995 5.11874 10.0243C5.10378 9.99015 5.05246 9.95383 5.01611 9.95383C4.06249 9.94956 3.10674 9.95169 2.14457 9.95169C2.01842 10.2273 1.88799 10.505 1.76398 10.7828C1.63141 11.0733 1.48602 11.3618 1.37697 11.6609C1.31069 11.8446 1.20806 11.8788 1.03059 11.8702C0.692762 11.8553 0.352796 11.866 0 11.866C0.147533 11.5476 0.288651 11.2421 0.431907 10.9366C0.750492 10.2529 1.07122 9.5714 1.3898 8.89201C1.56727 8.51172 1.74473 8.12929 1.9222 7.74686C2.09539 7.37512 2.26431 7.00123 2.4375 6.62735C2.56792 6.34748 2.7069 6.06973 2.83733 5.78772C3.00838 5.41811 3.17516 5.04637 3.34621 4.67889C3.42746 4.49943 3.5194 4.32424 3.6199 4.11914ZM2.61069 8.93046C3.30345 8.93046 3.97911 8.93046 4.65904 8.93046C4.32549 8.09724 3.86151 7.32811 3.63059 6.42439C3.40394 7.32598 2.93782 8.09724 2.61069 8.93046Z" fill="white"/>
</g>
<defs>
<clipPath id="clip0_7940_1292">
<rect width="26.836" height="16" fill="white"/>
</clipPath>
</defs>
</svg>
