<svg width="19" height="20" viewBox="0 0 19 20" fill="none" xmlns="http://www.w3.org/2000/svg">
<path d="M1.2334 19H17.4334" stroke="#3199DD" stroke-width="1.5" stroke-linecap="round" stroke-linejoin="round"/>
<path d="M1.2334 9.1C1.2334 8.2513 1.2334 7.8274 1.4971 7.5637C1.7608 7.3 2.1847 7.3 3.0334 7.3C3.8821 7.3 4.306 7.3 4.5697 7.5637C4.8334 7.8274 4.8334 8.2513 4.8334 9.1V14.5C4.8334 15.3487 4.8334 15.7726 4.5697 16.0363C4.306 16.3 3.8821 16.3 3.0334 16.3C2.1847 16.3 1.7608 16.3 1.4971 16.0363C1.2334 15.7726 1.2334 15.3487 1.2334 14.5V9.1ZM7.5334 5.5C7.5334 4.6513 7.5334 4.2274 7.7971 3.9637C8.0608 3.7 8.4847 3.7 9.3334 3.7C10.1821 3.7 10.606 3.7 10.8697 3.9637C11.1334 4.2274 11.1334 4.6513 11.1334 5.5V14.5C11.1334 15.3487 11.1334 15.7726 10.8697 16.0363C10.606 16.3 10.1821 16.3 9.3334 16.3C8.4847 16.3 8.0608 16.3 7.7971 16.0363C7.5334 15.7726 7.5334 15.3487 7.5334 14.5V5.5ZM13.8334 2.8C13.8334 1.9513 13.8334 1.5274 14.0971 1.2637C14.3608 1 14.7847 1 15.6334 1C16.4821 1 16.906 1 17.1697 1.2637C17.4334 1.5274 17.4334 1.9513 17.4334 2.8V14.5C17.4334 15.3487 17.4334 15.7726 17.1697 16.0363C16.906 16.3 16.4821 16.3 15.6334 16.3C14.7847 16.3 14.3608 16.3 14.0971 16.0363C13.8334 15.7726 13.8334 15.3487 13.8334 14.5V2.8Z" fill="#3199DD" stroke="#3199DD"/>
</svg>
