<svg width="19" height="20" viewBox="0 0 19 20" fill="none" xmlns="http://www.w3.org/2000/svg">
<path d="M1.23389 19H17.4339" stroke="#94A3B8" stroke-width="1.5" stroke-linecap="round" stroke-linejoin="round"/>
<path d="M1.23389 9.1C1.23389 8.2513 1.23389 7.8274 1.49759 7.5637C1.76129 7.3 2.18519 7.3 3.03389 7.3C3.88259 7.3 4.30649 7.3 4.57019 7.5637C4.83389 7.8274 4.83389 8.2513 4.83389 9.1V14.5C4.83389 15.3487 4.83389 15.7726 4.57019 16.0363C4.30649 16.3 3.88259 16.3 3.03389 16.3C2.18519 16.3 1.76129 16.3 1.49759 16.0363C1.23389 15.7726 1.23389 15.3487 1.23389 14.5V9.1ZM7.53389 5.5C7.53389 4.6513 7.53389 4.2274 7.79759 3.9637C8.06129 3.7 8.48519 3.7 9.33389 3.7C10.1826 3.7 10.6065 3.7 10.8702 3.9637C11.1339 4.2274 11.1339 4.6513 11.1339 5.5V14.5C11.1339 15.3487 11.1339 15.7726 10.8702 16.0363C10.6065 16.3 10.1826 16.3 9.33389 16.3C8.48519 16.3 8.06129 16.3 7.79759 16.0363C7.53389 15.7726 7.53389 15.3487 7.53389 14.5V5.5ZM13.8339 2.8C13.8339 1.9513 13.8339 1.5274 14.0976 1.2637C14.3613 1 14.7852 1 15.6339 1C16.4826 1 16.9065 1 17.1702 1.2637C17.4339 1.5274 17.4339 1.9513 17.4339 2.8V14.5C17.4339 15.3487 17.4339 15.7726 17.1702 16.0363C16.9065 16.3 16.4826 16.3 15.6339 16.3C14.7852 16.3 14.3613 16.3 14.0976 16.0363C13.8339 15.7726 13.8339 15.3487 13.8339 14.5V2.8Z" stroke="#94A3B8" stroke-width="1.5"/>
</svg>
