<svg width="127" height="150" viewBox="0 0 127 150" fill="none" xmlns="http://www.w3.org/2000/svg">
<g clip-path="url(#clip0_1389_73262)">
<path d="M49.3157 123.114C46.8112 120.531 43.1818 119.05 39.3581 119.05L39.2107 119.05C36.6921 119.051 34.2185 118.383 32.0428 117.114L31.8164 116.982L31.9988 116.795C32.986 115.773 33.8103 114.606 34.4428 113.334C33.9936 113.753 33.4578 114.068 32.8733 114.257C32.2888 114.446 31.67 114.504 31.0606 114.427C30.4173 114.35 29.7996 114.129 29.254 113.779C28.7085 113.43 28.2491 112.961 27.9104 112.409C26.574 110.241 24.981 107.164 24.981 104.82C24.983 102.839 25.3979 100.88 26.199 99.068C27.0001 97.2561 28.1699 95.6309 29.6339 94.2961C30.5608 93.4604 31.3011 92.4387 31.8066 91.2977C32.3121 90.1567 32.5715 88.9219 32.5678 87.6739L32.567 87.4963C32.5668 85.8533 32.7676 84.2164 33.1649 82.6222L33.2052 82.4612L33.3709 82.467C34.439 82.5033 35.5077 82.4138 36.5549 82.2002C35.5727 82.0797 34.6117 81.8241 33.6994 81.4407L33.5212 81.3686L33.5817 81.186C37.7503 78.605 47.1602 79.9416 52.622 67.4454C57.0507 57.3127 72.6768 76.4402 72.6768 87.4964C72.6768 88.6245 71.5604 90.1153 72.3962 90.861C81.4312 98.9215 75.1971 104.098 73.2317 109.306C72.7653 110.542 73.7765 111.898 73.7765 113.235C73.7765 113.462 73.7707 113.696 73.7593 113.931L73.7419 114.292L73.4406 114.092C72.8447 113.701 72.2922 113.248 71.7928 112.74C72.3109 113.933 72.5551 115.226 72.5074 116.525C72.4597 117.824 72.1212 119.096 71.517 120.247C70.5702 122.034 69.6541 123.314 68.7944 124.05C66.0403 126.407 62.49 127.622 58.8693 127.448C55.2486 127.274 51.8312 125.724 49.3157 123.114H49.3157Z" fill="#E6E6E6"/>
<path d="M64.4424 150C64.504 150 64.5634 149.977 64.6099 149.937C64.6564 149.897 64.6867 149.841 64.6954 149.78C64.7063 149.703 65.7712 142.023 64.8148 131.815C63.9315 122.388 61.095 108.81 52.5978 97.6587C52.5775 97.6319 52.552 97.6094 52.523 97.5925C52.4939 97.5755 52.4618 97.5645 52.4285 97.5599C52.3952 97.5554 52.3613 97.5575 52.3288 97.5661C52.2962 97.5747 52.2657 97.5896 52.239 97.61C52.2122 97.6304 52.1898 97.6558 52.1729 97.6849C52.156 97.714 52.145 97.7461 52.1405 97.7794C52.136 97.8128 52.1381 97.8467 52.1467 97.8792C52.1554 97.9117 52.1703 97.9422 52.1907 97.9689C60.6145 109.024 63.4282 122.503 64.3052 131.863C65.2561 142.011 64.1995 149.632 64.1887 149.708C64.1836 149.744 64.1863 149.781 64.1967 149.816C64.2071 149.851 64.2249 149.884 64.249 149.912C64.273 149.939 64.3027 149.961 64.3361 149.977C64.3695 149.992 64.4057 150 64.4424 150V150Z" fill="#3F3D56"/>
<path d="M57.5087 113.389C57.5627 113.389 57.6154 113.372 57.6592 113.34C57.7029 113.309 57.7355 113.264 57.7522 113.212C57.769 113.161 57.769 113.106 57.7523 113.054C57.7356 113.003 57.7031 112.958 57.6593 112.926C55.2382 111.287 52.6226 109.956 49.8728 108.962C45.5769 107.39 39.0442 105.964 32.319 108.104C32.2869 108.114 32.2571 108.131 32.2314 108.152C32.2056 108.174 32.1844 108.201 32.1689 108.23C32.1534 108.26 32.1439 108.293 32.1411 108.326C32.1382 108.36 32.142 108.394 32.1522 108.426C32.1624 108.458 32.1788 108.488 32.2005 108.513C32.2223 108.539 32.2488 108.56 32.2787 108.576C32.3086 108.591 32.3413 108.6 32.3748 108.603C32.4084 108.606 32.4421 108.602 32.4742 108.592C39.0616 106.495 45.4759 107.898 49.6969 109.443C52.4024 110.419 54.976 111.729 57.3584 113.34C57.4021 113.372 57.4547 113.389 57.5087 113.389Z" fill="#3F3D56"/>
<path d="M69.2207 84.2169C69.2246 84.163 69.2114 84.1092 69.1829 84.0633C69.1544 84.0174 69.112 83.9817 69.062 83.9613C69.0119 83.9409 68.9567 83.9369 68.9042 83.9498C68.8517 83.9628 68.8047 83.992 68.7698 84.0333C66.9608 86.3302 65.4445 88.8431 64.2556 91.5142C62.3775 95.6857 60.485 102.099 62.1355 108.961C62.1433 108.993 62.1575 109.024 62.1773 109.051C62.197 109.079 62.2219 109.102 62.2506 109.119C62.2793 109.137 62.3111 109.149 62.3443 109.154C62.3776 109.159 62.4115 109.158 62.4442 109.15C62.4769 109.142 62.5077 109.128 62.5349 109.108C62.5621 109.088 62.5851 109.063 62.6027 109.035C62.6202 109.006 62.6319 108.974 62.6371 108.941C62.6424 108.908 62.641 108.874 62.6331 108.841C61.0165 102.12 62.877 95.823 64.7223 91.7243C65.891 89.0961 67.3821 86.6234 69.1611 84.3633C69.196 84.322 69.2168 84.2708 69.2207 84.2169Z" fill="#3F3D56"/>
<path d="M118.581 149.729H98.2093L98.1218 149.571C97.8613 149.098 97.6098 148.598 97.3748 148.083C95.2763 143.591 94.3894 138.453 93.6068 133.92L93.0175 130.503C92.9461 130.089 92.9999 129.663 93.1719 129.28C93.3439 128.897 93.6263 128.574 93.983 128.352C94.3396 128.13 94.7543 128.02 95.174 128.036C95.5936 128.051 95.9992 128.191 96.3386 128.439C99.4346 130.691 102.532 132.942 105.63 135.19C106.803 136.044 108.143 137.032 109.426 138.1C109.55 137.498 109.68 136.895 109.809 136.301C109.898 135.89 110.108 135.515 110.412 135.225C110.715 134.934 111.098 134.741 111.512 134.669C111.926 134.597 112.352 134.651 112.736 134.823C113.119 134.995 113.443 135.277 113.665 135.634L116.048 139.463C117.787 142.26 119.321 145.016 119.008 147.988C119.01 148.024 119.007 148.06 119 148.096C118.938 148.584 118.822 149.064 118.654 149.527L118.581 149.729Z" fill="#F0F0F0"/>
<path d="M109.09 69.6386L105.158 55.0865C104.99 54.4704 104.586 53.9453 104.034 53.6244C103.482 53.3035 102.826 53.2125 102.207 53.3712C101.887 53.4533 101.587 53.5997 101.326 53.8014C101.064 54.0032 100.846 54.2561 100.685 54.5448C100.525 54.8335 100.425 55.1519 100.391 55.4806C100.357 55.8092 100.391 56.1413 100.49 56.4565L105.037 71.4475L107.417 80.673C107.07 80.9376 106.814 81.3024 106.682 81.718C106.55 82.1335 106.549 82.5796 106.679 82.9956C106.81 83.4116 107.065 83.7774 107.41 84.0433C107.756 84.3092 108.175 84.4622 108.611 84.4816C109.046 84.5011 109.477 84.386 109.845 84.1519C110.213 83.9179 110.5 83.5763 110.667 83.1735C110.834 82.7708 110.872 82.3264 110.778 81.9008C110.684 81.4751 110.46 81.0889 110.139 80.7945L109.09 69.6386Z" fill="#A0616A"/>
<path d="M76.006 66.5044L87.9518 57.311C88.4568 56.92 88.7877 56.3461 88.8733 55.7132C88.9589 55.0804 88.7922 54.4392 88.4092 53.9281C88.2111 53.6638 87.9612 53.4425 87.6748 53.2778C87.3884 53.1132 87.0714 53.0086 86.7433 52.9704C86.4151 52.9322 86.0826 52.9613 85.766 53.0558C85.4495 53.1504 85.1554 53.3084 84.9019 53.5202L72.7859 63.4504L65.1694 69.174C64.7925 68.9549 64.3572 68.8571 63.9228 68.894C63.4884 68.9308 63.0758 69.1005 62.7412 69.3799C62.4066 69.6594 62.1661 70.0351 62.0524 70.456C61.9388 70.8769 61.9574 71.3226 62.1059 71.7325C62.2543 72.1425 62.5254 72.4967 62.8822 72.7473C63.239 72.9978 63.6643 73.1324 64.1003 73.1328C64.5363 73.1332 64.9618 72.9993 65.3191 72.7495C65.6764 72.4996 65.948 72.1458 66.0972 71.7361L76.006 66.5044Z" fill="#A0616A"/>
<path d="M85.7429 68.6182L85.2163 80.3783L101.75 76.7849C100.342 72.0595 99.3855 71.2535 100.443 67.9648L85.7429 68.6182Z" fill="#A0616A"/>
<path d="M95.9089 47.0586H90.3999L88.0341 51.107L86.9068 51.0448C86.3555 51.0143 85.8037 51.0966 85.2852 51.2867C84.7667 51.4767 84.2925 51.7705 83.8914 52.15C83.4903 52.5296 83.1708 52.9869 82.9525 53.4941C82.7342 54.0013 82.6216 54.5477 82.6216 55.0999L84.0106 57.2528C84.0106 57.2528 81.5265 61.5819 85.1047 63.7117C85.1047 63.7117 84.4665 67.7244 85.1047 67.6813C85.7429 67.6381 87.213 66.8215 85.7429 67.6381C84.2729 68.4548 84.3826 68.5645 84.5728 68.7547L84.7629 68.9448L100.22 71.5403C100.22 71.5403 100.672 68.5438 100.721 68.0093C100.77 67.4748 100.443 68.7815 100.77 67.4748C101.096 66.1681 101.586 66.6581 101.096 66.1681C100.606 65.6781 104.271 59.6075 102.766 57.2527L105.18 54.898C105.18 52.6392 101.552 50.8082 99.2933 50.8082H99.0039L95.9089 47.0586Z" fill="#E6E6E6"/>
<path d="M82.6359 145.195H80.406L79.3452 136.595L82.6361 136.595L82.6359 145.195Z" fill="#A0616A"/>
<path d="M75.9054 148.486C75.9065 148.735 76.0061 148.975 76.1825 149.151C76.359 149.328 76.598 149.428 76.8478 149.43H81.0453L81.1753 149.16L81.769 147.935L81.999 149.16L82.0499 149.43H83.6331L83.6105 149.158L83.1883 144.096L82.636 144.062L80.2499 143.921L79.6637 143.885V145.396C79.2189 145.869 75.7283 147.658 75.9054 148.486Z" fill="#374151"/>
<path d="M115.774 139.355L113.898 140.561L108.353 133.902L111.121 132.122L115.774 139.355Z" fill="#A0616A"/>
<path d="M111.894 145.763C112.03 145.972 112.243 146.12 112.487 146.173C112.731 146.226 112.987 146.181 113.198 146.047L116.728 143.776L116.691 143.479L116.528 142.128L117.384 143.034L117.572 143.233L118.904 142.376L118.738 142.16L115.644 138.131L115.161 138.401L113.078 139.573L112.566 139.86L113.384 141.131C113.265 141.77 111.297 145.163 111.894 145.763Z" fill="#374151"/>
<path d="M126.175 149.887L57.131 149.954C57.062 149.954 56.9961 149.926 56.9475 149.877C56.8989 149.828 56.8716 149.762 56.8716 149.693C56.8716 149.624 56.8989 149.558 56.9475 149.509C56.9961 149.46 57.062 149.433 57.131 149.433L126.175 149.365C126.244 149.366 126.31 149.393 126.358 149.442C126.407 149.491 126.434 149.557 126.434 149.626C126.434 149.695 126.407 149.761 126.358 149.81C126.31 149.859 126.244 149.886 126.175 149.887Z" fill="#CACACA"/>
<path d="M101.491 75.4561C101.491 75.4561 90.9225 81.0463 85.3327 77.2323C85.3327 77.2323 84.1099 83.1546 83.6199 83.6446C83.1299 84.1346 82.3492 84.3481 82.9029 84.8947C83.4565 85.4413 83.7647 86.1795 82.7123 87.1171C81.6599 88.0546 80.6104 87.7572 81.6251 88.7226C82.6399 89.688 78.5565 113.372 78.5565 113.372C78.5565 113.372 79.2098 135.396 78.5565 136.062C77.9031 136.728 77.0299 136.878 77.8748 137.701C78.7198 138.525 78.7198 137.886 78.7198 139.022V140.159L79.1064 141.288H84.4097C84.4097 141.288 85.6896 139.801 84.4097 138.51C83.1299 137.218 84.7992 136.865 85.1896 135.653C85.5799 134.442 86.2332 135.748 85.5799 134.442C84.9266 133.135 84.6128 133.384 84.6063 132.524C84.5999 131.665 94.2367 98.0181 94.2367 98.0181L95.4038 116.641L109.443 137.037L113.576 133.937C113.576 133.937 110.567 129.702 111.271 129.12C111.974 128.537 109.197 127.807 110.073 127.15C110.948 126.493 108.84 125.832 109.635 124.961C110.429 124.09 108.54 121.896 107.445 121.896C106.351 121.896 104.814 118.238 104.814 118.238L107.108 89.3394L101.491 75.4561Z" fill="#374151"/>
<path d="M90.2893 35.1713C90.2146 35.2695 89.6187 35.2166 88.9021 35.112C87.4854 34.9051 87.2923 35.1509 86.2332 36.1143C84.6989 37.5099 85.5712 46.0219 84.8173 47.8663L84.5737 48.0457C85.0568 47.9535 85.5313 47.8207 85.9922 47.6488C86.2525 46.8274 86.5135 46.0034 86.7763 45.1828C87.0243 45.8213 87.1803 46.4919 87.2394 47.1744C87.6041 47.0306 87.9667 46.679 89.4906 46.2074C90.258 45.6869 95.8095 45.1634 96.5233 44.9344C98.3345 38.7716 95.4156 36.2793 90.2893 35.1713Z" fill="#374151"/>
<path d="M92.1631 44.6748C95.093 44.6748 97.4682 42.2996 97.4682 39.3696C97.4682 36.4397 95.093 34.0645 92.1631 34.0645C89.2331 34.0645 86.8579 36.4397 86.8579 39.3696C86.8579 42.2996 89.2331 44.6748 92.1631 44.6748Z" fill="#A0616A"/>
<path d="M95.5033 34.7043C95.2043 34.6602 94.9165 34.5593 94.6555 34.407C94.5261 34.3289 94.4212 34.2159 94.353 34.081C94.2847 33.9461 94.2557 33.7947 94.2694 33.6441C94.3348 33.2672 94.7609 33.0421 95.1428 33.0651C95.523 33.1199 95.8843 33.2661 96.1956 33.4911C96.1614 33.1268 96.0058 32.7846 95.7537 32.5194C95.5016 32.2542 95.1677 32.0814 94.8056 32.0288C95.3079 32.0018 95.83 31.9779 96.2945 32.1711C96.7589 32.3642 97.1459 32.8426 97.0622 33.3385C97.843 33.238 98.613 33.782 98.9353 34.5002C99.2577 35.2185 99.1938 36.0619 98.9363 36.8059C98.9109 36.9198 98.8613 37.027 98.7908 37.1201C98.7204 37.2131 98.6308 37.29 98.5281 37.3454C98.2652 37.4451 97.9825 37.2779 97.7548 37.1131C96.5654 36.2519 95.4829 35.2521 94.53 34.1348" fill="#374151"/>
<path d="M97.8167 45.0093C97.5918 45.1152 97.7089 45.5091 97.5341 45.6856C97.4583 45.7602 97.3668 45.8172 97.2662 45.8522C97.24 45.5234 97.1634 45.2006 97.0392 44.895C97.0163 44.8395 96.9788 44.7774 96.92 44.7823C96.8514 44.7905 96.8334 44.8803 96.8318 44.9473C96.8179 45.2795 96.7444 45.6065 96.6145 45.9126C96.6129 45.9159 96.6113 45.9208 96.6096 45.924C96.559 45.9224 96.5067 45.9208 96.4577 45.9191C96.0788 45.9044 95.2393 44.931 95.0531 45.2609C95.7097 44.0963 96.51 42.3454 96.6325 41.0142C96.675 40.7355 96.6543 40.4508 96.5721 40.1812C96.5291 40.047 96.4486 39.928 96.34 39.8382C96.2315 39.7485 96.0994 39.6918 95.9596 39.6748C95.8906 39.6717 95.8218 39.6838 95.758 39.7104C95.6943 39.7369 95.6372 39.7772 95.5908 39.8284C95.5445 39.8796 95.51 39.9404 95.4899 40.0065C95.4698 40.0725 95.4645 40.1422 95.4745 40.2106L95.3797 40.1975C94.501 39.4821 95.2589 38.2391 94.2364 37.7475C93.8901 37.5809 91.77 38.1379 91.396 38.0398C91.388 37.6458 91.3077 37.2566 91.1592 36.8916C91.1363 36.8361 91.0987 36.774 91.0399 36.7789C90.9713 36.7871 90.9534 36.8769 90.9517 36.9439C90.9379 37.2761 90.8643 37.6031 90.7345 37.9092C90.2163 37.8357 89.6888 37.8634 89.1812 37.9908C88.7336 38.1084 88.309 38.311 87.8598 38.4188C87.6378 38.4868 87.4042 38.5089 87.1733 38.4836C86.9425 38.4583 86.7192 38.3862 86.5172 38.2718C85.9471 37.8896 85.8475 37.0435 86.1317 36.4196C86.3374 36.0192 86.6154 35.6603 86.9516 35.3612C87.2081 35.1129 87.4743 34.8744 87.7406 34.6359C87.979 34.422 88.2175 34.208 88.456 33.994C88.7562 33.7115 89.076 33.4506 89.4131 33.2133C89.9513 32.8605 90.5559 32.6214 91.1899 32.5108C91.8238 32.4001 92.4737 32.4202 93.0996 32.5698C93.8509 32.7494 94.8554 32.4963 95.5431 32.8474C95.9024 33.032 96.6978 33.7392 97.0131 33.9908C97.82 34.6327 97.2739 34.1096 98.1564 34.4808C100.261 35.3657 99.3302 44.2968 97.8167 45.0093Z" fill="#374151"/>
<path d="M39.0767 83.7316C57.2472 83.7316 71.9772 69.0015 71.9772 50.8311C71.9772 32.6607 57.2472 17.9307 39.0767 17.9307C20.9063 17.9307 6.17627 32.6607 6.17627 50.8311C6.17627 69.0015 20.9063 83.7316 39.0767 83.7316Z" fill="white"/>
<path d="M39.076 84.0602C20.7536 84.0602 5.84717 69.1538 5.84717 50.8314C5.84717 32.509 20.7536 17.6025 39.076 17.6025C57.3984 17.6025 72.3049 32.509 72.3049 50.8314C72.3049 69.1538 57.3984 84.0602 39.076 84.0602ZM39.076 18.2594C21.1158 18.2594 6.50398 32.8712 6.50398 50.8314C6.50398 68.7916 21.1158 83.4034 39.076 83.4034C57.0363 83.4034 71.6481 68.7916 71.6481 50.8314C71.6481 32.8712 57.0363 18.2594 39.076 18.2594Z" fill="#3199DD"/>
<path d="M34.5877 67.954C34.0196 67.954 33.4592 67.8217 32.9511 67.5676C32.443 67.3134 32.001 66.9444 31.6602 66.4898L22.6845 54.522C22.3962 54.1375 22.1864 53.7 22.0671 53.2344C21.9478 52.7689 21.9215 52.2844 21.9894 51.8086C22.0574 51.3329 22.2184 50.8752 22.4633 50.4616C22.7082 50.0481 23.0321 49.6869 23.4166 49.3985C23.8011 49.1102 24.2386 48.9004 24.7041 48.7811C25.1697 48.6619 25.6542 48.6355 26.13 48.7035C26.6057 48.7714 27.0634 48.9325 27.4769 49.1773C27.8905 49.4222 28.2517 49.7461 28.5401 50.1306L34.4123 57.9597L49.4944 35.3368C50.0331 34.5299 50.8702 33.9698 51.8216 33.7798C52.7731 33.5899 53.7611 33.7855 54.5684 34.3237C55.3757 34.8619 55.9362 35.6986 56.1268 36.6499C56.3174 37.6013 56.1224 38.5894 55.5847 39.397L37.6331 66.3242C37.3084 66.8112 36.8717 67.2133 36.3595 67.4966C35.8473 67.78 35.2747 67.9364 34.6896 67.9528C34.6556 67.9534 34.6217 67.954 34.5877 67.954Z" fill="#3199DD"/>
<path d="M72.9738 19.9859C73.0653 19.3569 72.4065 18.7404 71.5023 18.6088C70.5981 18.4772 69.7909 18.8805 69.6994 19.5095C69.6079 20.1385 70.2667 20.7551 71.1709 20.8866C72.0751 21.0182 72.8823 20.6149 72.9738 19.9859Z" fill="#E6E6E6"/>
<path d="M83.7394 18.9361C83.831 18.3071 83.1721 17.6906 82.2679 17.559C81.3637 17.4274 80.5565 17.8307 80.465 18.4597C80.3735 19.0887 81.0323 19.7053 81.9365 19.8368C82.8407 19.9684 83.6479 19.5651 83.7394 18.9361Z" fill="#0D5EAF"/>
<path d="M70.0256 11.2711C70.1171 10.6421 69.4583 10.0255 68.5541 9.89395C67.6499 9.76239 66.8427 10.1657 66.7512 10.7947C66.6596 11.4237 67.3185 12.0402 68.2227 12.1718C69.1269 12.3034 69.9341 11.9001 70.0256 11.2711Z" fill="#D3EEFF"/>
<path d="M65.3479 7.70077C65.3522 7.12331 65.0301 6.65273 64.6284 6.64969C64.2267 6.64665 63.8975 7.11231 63.8932 7.68977C63.8888 8.26723 64.2109 8.73781 64.6126 8.74085C65.0143 8.74389 65.3435 8.27823 65.3479 7.70077Z" fill="#E6E6E6"/>
<path d="M63.761 1.05136C63.7653 0.473899 63.4432 0.00331306 63.0415 0.00027542C62.6398 -0.00276222 62.3106 0.462899 62.3062 1.04036C62.3019 1.61781 62.624 2.0884 63.0257 2.09144C63.4274 2.09448 63.7566 1.62881 63.761 1.05136Z" fill="#0D5EAF"/>
<path d="M76.0979 12.7535C76.1022 12.176 75.7801 11.7055 75.3784 11.7024C74.9767 11.6994 74.6475 12.165 74.6432 12.7425C74.6388 13.32 74.9609 13.7905 75.3626 13.7936C75.7643 13.7966 76.0935 13.331 76.0979 12.7535Z" fill="#E6E6E6"/>
<path d="M70.8948 15.3512C70.8991 14.7737 70.577 14.3031 70.1753 14.3001C69.7736 14.2971 69.4444 14.7627 69.44 15.3402C69.4357 15.9176 69.7578 16.3882 70.1595 16.3912C70.5612 16.3943 70.8904 15.9286 70.8948 15.3512Z" fill="#D3EEFF"/>
<path d="M78.1369 20.152C78.1413 19.5745 77.8192 19.1039 77.4175 19.1009C77.0158 19.0978 76.6866 19.5635 76.6822 20.141C76.6779 20.7184 77 21.189 77.4017 21.192C77.8034 21.1951 78.1326 20.7294 78.1369 20.152Z" fill="#0D5EAF"/>
<path d="M11.2326 97.9283C11.3241 97.2993 10.6653 96.6827 9.7611 96.5512C8.8569 96.4196 8.04971 96.8229 7.95819 97.4519C7.86667 98.0809 8.52548 98.6975 9.42968 98.829C10.3339 98.9606 11.1411 98.5573 11.2326 97.9283Z" fill="#E6E6E6"/>
<path d="M21.9982 96.8775C22.0897 96.2485 21.4309 95.632 20.5267 95.5004C19.6225 95.3688 18.8153 95.7721 18.7238 96.4011C18.6323 97.0301 19.2911 97.6467 20.1953 97.7782C21.0995 97.9098 21.9067 97.5065 21.9982 96.8775Z" fill="#0D5EAF"/>
<path d="M8.28534 89.2125C8.37685 88.5835 7.71805 87.9669 6.81384 87.8354C5.90964 87.7038 5.10244 88.1071 5.01092 88.7361C4.91941 89.3651 5.57822 89.9816 6.48242 90.1132C7.38663 90.2448 8.19382 89.8415 8.28534 89.2125Z" fill="#D3EEFF"/>
<path d="M3.60667 85.6432C3.61104 85.0657 3.28893 84.5951 2.88722 84.5921C2.48551 84.589 2.15632 85.0547 2.15195 85.6322C2.14758 86.2096 2.4697 86.6802 2.87141 86.6832C3.27312 86.6863 3.60231 86.2206 3.60667 85.6432Z" fill="#E6E6E6"/>
<path d="M2.02073 78.9928C2.02509 78.4153 1.70299 77.9447 1.30128 77.9417C0.899567 77.9387 0.570379 78.4043 0.566012 78.9818C0.561645 79.5592 0.883754 80.0298 1.28546 80.0328C1.68717 80.0359 2.01636 79.5702 2.02073 78.9928Z" fill="#0D5EAF"/>
<path d="M14.3567 90.6959C14.361 90.1184 14.0389 89.6478 13.6372 89.6448C13.2355 89.6418 12.9063 90.1074 12.9019 90.6849C12.8976 91.2623 13.2197 91.7329 13.6214 91.736C14.0231 91.739 14.3523 91.2733 14.3567 90.6959Z" fill="#E6E6E6"/>
<path d="M9.15453 93.2935C9.1589 92.7161 8.83678 92.2455 8.43507 92.2425C8.03336 92.2394 7.70417 92.7051 7.6998 93.2825C7.69543 93.86 8.01755 94.3306 8.41926 94.3336C8.82097 94.3367 9.15016 93.871 9.15453 93.2935Z" fill="#D3EEFF"/>
<path d="M16.3967 98.0943C16.4011 97.5169 16.079 97.0463 15.6772 97.0432C15.2755 97.0402 14.9464 97.5059 14.942 98.0833C14.9376 98.6608 15.2597 99.1314 15.6614 99.1344C16.0631 99.1374 16.3923 98.6718 16.3967 98.0943Z" fill="#0D5EAF"/>
</g>
<defs>
<clipPath id="clip0_1389_73262">
<rect width="125.869" height="150" fill="white" transform="translate(0.565918)"/>
</clipPath>
</defs>
</svg>
