<svg width="18" height="18" viewBox="0 0 18 18" fill="none" xmlns="http://www.w3.org/2000/svg">
<path d="M6.85714 0H1.14286C0.511675 0 0 0.497461 0 1.11111V8.88889C0 9.50254 0.511675 10 1.14286 10H6.85714C7.48833 10 8 9.50254 8 8.88889V1.11111C8 0.497461 7.48833 0 6.85714 0Z" fill="#3199DD"/>
<path d="M16.8571 0H11.1429C10.5117 0 10 0.537258 10 1.2V4.8C10 5.46274 10.5117 6 11.1429 6H16.8571C17.4883 6 18 5.46274 18 4.8V1.2C18 0.537258 17.4883 0 16.8571 0Z" fill="#3199DD"/>
<path d="M16.8571 8H11.1429C10.5117 8 10 8.49746 10 9.11111V16.8889C10 17.5025 10.5117 18 11.1429 18H16.8571C17.4883 18 18 17.5025 18 16.8889V9.11111C18 8.49746 17.4883 8 16.8571 8Z" fill="#3199DD"/>
<path d="M6.85714 12H1.14286C0.511675 12 0 12.5373 0 13.2V16.8C0 17.4627 0.511675 18 1.14286 18H6.85714C7.48833 18 8 17.4627 8 16.8V13.2C8 12.5373 7.48833 12 6.85714 12Z" fill="#3199DD"/>
</svg>
