<svg width="28" height="29" viewBox="0 0 28 29" fill="none" xmlns="http://www.w3.org/2000/svg">
<path d="M20.9702 22.9L20.8854 23.0494C20.7465 23.2941 20.5448 23.4973 20.3011 23.638C20.0576 23.7787 19.7809 23.8519 19.4996 23.85H19.5V23.75L19.4993 23.85L20.9702 22.9ZM20.9702 22.9H20.9612C21.053 22.6951 21.1007 22.4724 21.1003 22.2466C21.0998 21.9643 21.0241 21.6873 20.881 21.444C20.3724 20.5675 19.6 18.0508 19.6 14.75C19.6 12.7344 18.7993 10.8013 17.374 9.37599C15.9487 7.95071 14.0156 7.15 12 7.15C9.98435 7.15 8.05126 7.95071 6.62598 9.37599C5.2007 10.8013 4.39999 12.7344 4.39999 14.75C4.39999 18.052 3.62843 20.568 3.11976 21.4442L3.20624 21.4944M20.9702 22.9L3.20624 21.4944M3.20624 21.4944C3.72655 20.5981 4.49999 18.0631 4.49999 14.75C4.49999 12.7609 5.29017 10.8532 6.69669 9.4467C8.10321 8.04018 10.0109 7.25 12 7.25C13.9891 7.25 15.8968 8.04018 17.3033 9.4467C18.7098 10.8532 19.5 12.7609 19.5 14.75C19.5 18.0622 20.2744 20.5981 20.7947 21.4944H3.20624ZM15.601 26.601C15.7604 26.4416 15.85 26.2254 15.85 26C15.85 25.7746 15.7604 25.5584 15.601 25.399C15.4416 25.2396 15.2254 25.15 15 25.15H8.99999C8.77456 25.15 8.55836 25.2396 8.39895 25.399C8.23954 25.5584 8.14999 25.7746 8.14999 26C8.14999 26.2254 8.23954 26.4416 8.39895 26.601C8.55836 26.7604 8.77456 26.85 8.99999 26.85H15C15.2254 26.85 15.4416 26.7604 15.601 26.601ZM17.9 14.75C17.9 18.012 18.6193 20.8162 19.3299 22.15H4.67002C5.3798 20.817 6.09999 18.0129 6.09999 14.75C6.09999 13.1852 6.7216 11.6845 7.82806 10.5781C8.93453 9.47161 10.4352 8.85 12 8.85C13.5648 8.85 15.0655 9.47161 16.1719 10.5781C17.2784 11.6845 17.9 13.1852 17.9 14.75Z" fill="#F9FAFB" stroke="#F9FAFB" stroke-width="0.2"/>
</svg>
