<svg width="20" height="20" viewBox="0 0 20 20" fill="#ffffff"  xmlns="http://www.w3.org/2000/svg">
<path d="M18.9701 15.9L18.8853 16.0494C18.7464 16.2941 18.5447 16.4973 18.3011 16.638C18.0575 16.7787 17.7808 16.8519 17.4995 16.85H17.4999V16.75L17.4992 16.85L18.9701 15.9ZM18.9701 15.9H18.9611C19.053 15.6951 19.1007 15.4724 19.1002 15.2466C19.0997 14.9643 19.024 14.6873 18.881 14.444C18.3723 13.5675 17.5999 11.0508 17.5999 7.75C17.5999 5.73435 16.7992 3.80126 15.3739 2.37599C13.9487 0.950712 12.0156 0.15 9.99993 0.15C7.98428 0.15 6.0512 0.950712 4.62592 2.37599C3.20064 3.80126 2.39993 5.73435 2.39993 7.75C2.39993 11.052 1.62837 13.568 1.1197 14.4442L1.20618 14.4944M18.9701 15.9L1.20618 14.4944M1.20618 14.4944C1.72649 13.5981 2.49993 11.0631 2.49993 7.75C2.49993 5.76088 3.29011 3.85322 4.69663 2.4467C6.10315 1.04018 8.01081 0.25 9.99993 0.25C11.9891 0.25 13.8967 1.04018 15.3032 2.4467C16.7098 3.85322 17.4999 5.76088 17.4999 7.75C17.4999 11.0622 18.2743 13.5981 18.7946 14.4944H1.20618ZM13.601 19.601C13.7604 19.4416 13.8499 19.2254 13.8499 19C13.8499 18.7746 13.7604 18.5584 13.601 18.399C13.4416 18.2396 13.2254 18.15 12.9999 18.15H6.99993C6.7745 18.15 6.5583 18.2396 6.39889 18.399C6.23948 18.5584 6.14993 18.7746 6.14993 19C6.14993 19.2254 6.23948 19.4416 6.39889 19.601C6.5583 19.7604 6.7745 19.85 6.99993 19.85H12.9999C13.2254 19.85 13.4416 19.7604 13.601 19.601ZM15.8999 7.75C15.8999 11.012 16.6193 13.8162 17.3299 15.15H2.66996C3.37974 13.817 4.09993 11.0129 4.09993 7.75C4.09993 6.18522 4.72154 4.68453 5.828 3.57807C6.93446 2.47161 8.43515 1.85 9.99993 1.85C11.5647 1.85 13.0654 2.47161 14.1719 3.57807C15.2783 4.68453 15.8999 6.18522 15.8999 7.75Z" fill="#F9FAFB" stroke="#F9FAFB" stroke-width="0.2"/>
</svg>
