<svg width="20" height="20" viewBox="0 0 20 20" fill="#FBBF24" xmlns="http://www.w3.org/2000/svg">
<g clip-path="url(#clip0_7966_5386)">
<path d="M10 15.8337H5C4.33696 15.8337 3.70107 15.5703 3.23223 15.1014C2.76339 14.6326 2.5 13.9967 2.5 13.3337V6.66699C2.5 6.00395 2.76339 5.36807 3.23223 4.89923C3.70107 4.43038 4.33696 4.16699 5 4.16699H15C15.663 4.16699 16.2989 4.43038 16.7678 4.89923C17.2366 5.36807 17.5 6.00395 17.5 6.66699V10.417" stroke="#FBBF24" stroke-width="1.5" stroke-linecap="round" stroke-linejoin="round"/>
<path d="M2.5 8.33301H17.5" stroke="#FBBF24" stroke-width="1.5" stroke-linecap="round" stroke-linejoin="round"/>
<path d="M5.8374 12.5H5.84157" stroke="#FBBF24" stroke-width="1.5" stroke-linecap="round" stroke-linejoin="round"/>
<path d="M9.1665 12.5H10.8332" stroke="#FBBF24" stroke-width="1.5" stroke-linecap="round" stroke-linejoin="round"/>
<path d="M13.6111 11.666H13.0556C12.9082 11.666 12.7669 11.7319 12.6627 11.8491C12.5585 11.9663 12.5 12.1253 12.5 12.291V16.041C12.5 16.2068 12.5585 16.3657 12.6627 16.483C12.7669 16.6002 12.9082 16.666 13.0556 16.666H13.6111C13.7585 16.666 13.8998 16.6002 14.0039 16.483C14.1081 16.3657 14.1667 16.2068 14.1667 16.041V12.291C14.1667 12.1253 14.1081 11.9663 14.0039 11.8491C13.8998 11.7319 13.7585 11.666 13.6111 11.666Z" fill="#FBBF24"/>
<path d="M16.1111 11.666H15.5556C15.4082 11.666 15.2669 11.7319 15.1627 11.8491C15.0585 11.9663 15 12.1253 15 12.291V16.041C15 16.2068 15.0585 16.3657 15.1627 16.483C15.2669 16.6002 15.4082 16.666 15.5556 16.666H16.1111C16.2585 16.666 16.3998 16.6002 16.5039 16.483C16.6081 16.3657 16.6667 16.2068 16.6667 16.041V12.291C16.6667 12.1253 16.6081 11.9663 16.5039 11.8491C16.3998 11.7319 16.2585 11.666 16.1111 11.666Z" fill="#FBBF24"/>
</g>
<defs>
<clipPath id="clip0_7966_5386">
<rect width="20" height="20" fill="white"/>
</clipPath>
</defs>
</svg>
