<svg width="20" height="20" viewBox="0 0 20 20" fill="none" xmlns="http://www.w3.org/2000/svg">
<g clip-path="url(#clip0_6971_15487)">
<path d="M16.2792 2.60168L14.8992 1.22002C14.5131 0.831944 14.0538 0.524299 13.548 0.314887C13.0422 0.105474 12.4999 -0.00154666 11.9525 1.68879e-05H6.66667C5.562 0.0013401 4.50296 0.440752 3.72185 1.22187C2.94073 2.00298 2.50132 3.06202 2.5 4.16668V15.8334C2.50132 16.938 2.94073 17.9971 3.72185 18.7782C4.50296 19.5593 5.562 19.9987 6.66667 20H13.3333C14.438 19.9987 15.497 19.5593 16.2782 18.7782C17.0593 17.9971 17.4987 16.938 17.5 15.8334V5.54752C17.5013 5.00017 17.3941 4.45799 17.1846 3.95234C16.975 3.4467 16.6673 2.98762 16.2792 2.60168ZM15.1008 3.78002C15.219 3.89778 15.3249 4.02735 15.4167 4.16668H13.3333V2.08335C13.4724 2.17612 13.6022 2.28217 13.7208 2.40002L15.1008 3.78002ZM15.8333 15.8334C15.8333 16.4964 15.5699 17.1323 15.1011 17.6011C14.6323 18.07 13.9964 18.3334 13.3333 18.3334H6.66667C6.00363 18.3334 5.36774 18.07 4.8989 17.6011C4.43006 17.1323 4.16667 16.4964 4.16667 15.8334V4.16668C4.16667 3.50364 4.43006 2.86776 4.8989 2.39892C5.36774 1.93008 6.00363 1.66668 6.66667 1.66668H11.6667V4.16668C11.6667 4.60871 11.8423 5.03263 12.1548 5.34519C12.4674 5.65776 12.8913 5.83335 13.3333 5.83335H15.8333V15.8334ZM13.3333 7.50002C13.5543 7.50002 13.7663 7.58781 13.9226 7.74409C14.0789 7.90038 14.1667 8.11234 14.1667 8.33335C14.1667 8.55436 14.0789 8.76633 13.9226 8.92261C13.7663 9.07889 13.5543 9.16668 13.3333 9.16668H6.66667C6.44565 9.16668 6.23369 9.07889 6.07741 8.92261C5.92113 8.76633 5.83333 8.55436 5.83333 8.33335C5.83333 8.11234 5.92113 7.90038 6.07741 7.74409C6.23369 7.58781 6.44565 7.50002 6.66667 7.50002H13.3333ZM14.1667 11.6667C14.1667 11.8877 14.0789 12.0997 13.9226 12.2559C13.7663 12.4122 13.5543 12.5 13.3333 12.5H6.66667C6.44565 12.5 6.23369 12.4122 6.07741 12.2559C5.92113 12.0997 5.83333 11.8877 5.83333 11.6667C5.83333 11.4457 5.92113 11.2337 6.07741 11.0774C6.23369 10.9211 6.44565 10.8334 6.66667 10.8334H13.3333C13.5543 10.8334 13.7663 10.9211 13.9226 11.0774C14.0789 11.2337 14.1667 11.4457 14.1667 11.6667ZM14.0067 14.5109C14.1362 14.6891 14.1899 14.9113 14.156 15.129C14.1221 15.3467 14.0034 15.5421 13.8258 15.6725C12.9815 16.2742 11.9815 16.6194 10.9458 16.6667C10.3407 16.6638 9.75402 16.4584 9.27917 16.0834C9.00583 15.8959 8.90167 15.8334 8.69583 15.8334C8.13869 15.9196 7.61301 16.1474 7.16917 16.495C6.99312 16.6205 6.7752 16.6727 6.56141 16.6405C6.34762 16.6083 6.15471 16.4943 6.0234 16.3226C5.8921 16.1508 5.83268 15.9348 5.85771 15.72C5.88273 15.5053 5.99023 15.3087 6.1575 15.1717C6.89182 14.6016 7.77357 14.253 8.69917 14.1667C9.25428 14.1756 9.79094 14.3674 10.2258 14.7125C10.4241 14.8908 10.6793 14.9927 10.9458 15C11.6272 14.949 12.2825 14.7162 12.8433 14.3259C13.0222 14.1962 13.2452 14.1429 13.4633 14.1776C13.6814 14.2123 13.8769 14.3321 14.0067 14.5109Z" fill="white"/>
</g>
<defs>
<clipPath id="clip0_6971_15487">
<rect width="20" height="20" fill="white"/>
</clipPath>
</defs>
</svg>
