<svg width="24" height="24" viewBox="0 0 24 24" fill="none" xmlns="http://www.w3.org/2000/svg">
<g clip-path="url(#clip0_7940_3488)">
<path d="M7 0H4C2.93913 0 1.92172 0.421427 1.17157 1.17157C0.421427 1.92172 0 2.93913 0 4L0 7C0 8.06087 0.421427 9.07828 1.17157 9.82843C1.92172 10.5786 2.93913 11 4 11H7C8.06087 11 9.07828 10.5786 9.82843 9.82843C10.5786 9.07828 11 8.06087 11 7V4C11 2.93913 10.5786 1.92172 9.82843 1.17157C9.07828 0.421427 8.06087 0 7 0V0ZM9 7C9 7.53043 8.78929 8.03914 8.41421 8.41421C8.03914 8.78929 7.53043 9 7 9H4C3.46957 9 2.96086 8.78929 2.58579 8.41421C2.21071 8.03914 2 7.53043 2 7V4C2 3.46957 2.21071 2.96086 2.58579 2.58579C2.96086 2.21071 3.46957 2 4 2H7C7.53043 2 8.03914 2.21071 8.41421 2.58579C8.78929 2.96086 9 3.46957 9 4V7Z" fill="#D3EEFF"/>
<path d="M7 13H4C2.93913 13 1.92172 13.4214 1.17157 14.1716C0.421427 14.9217 0 15.9391 0 17L0 20C0 21.0609 0.421427 22.0783 1.17157 22.8284C1.92172 23.5786 2.93913 24 4 24H7C8.06087 24 9.07828 23.5786 9.82843 22.8284C10.5786 22.0783 11 21.0609 11 20V17C11 15.9391 10.5786 14.9217 9.82843 14.1716C9.07828 13.4214 8.06087 13 7 13ZM9 20C9 20.5304 8.78929 21.0392 8.41421 21.4142C8.03914 21.7893 7.53043 22 7 22H4C3.46957 22 2.96086 21.7893 2.58579 21.4142C2.21071 21.0392 2 20.5304 2 20V17C2 16.4696 2.21071 15.9609 2.58579 15.5858C2.96086 15.2107 3.46957 15 4 15H7C7.53043 15 8.03914 15.2107 8.41421 15.5858C8.78929 15.9609 9 16.4696 9 17V20Z" fill="#D3EEFF"/>
<path d="M22.2932 19.0492L20.0002 21.3392V2.63321L22.2932 4.92321C22.3861 5.01606 22.4964 5.08969 22.6178 5.13992C22.7391 5.19014 22.8692 5.21596 23.0005 5.21592C23.1319 5.21587 23.2619 5.18995 23.3833 5.13965C23.5046 5.08934 23.6148 5.01562 23.7077 4.92271C23.8005 4.8298 23.8742 4.71952 23.9244 4.59815C23.9746 4.47678 24.0004 4.34671 24.0004 4.21536C24.0003 4.08401 23.9744 3.95396 23.9241 3.83263C23.8738 3.71129 23.8001 3.60106 23.7072 3.50821L21.1202 0.925212C20.5577 0.36341 19.7952 0.0478516 19.0002 0.0478516C18.2052 0.0478516 17.4427 0.36341 16.8802 0.925212L14.2932 3.50821C14.2003 3.60106 14.1266 3.71129 14.0763 3.83263C14.026 3.95396 14 4.08401 14 4.21536C14 4.34671 14.0258 4.47678 14.076 4.59815C14.1262 4.71952 14.1999 4.8298 14.2927 4.92271C14.3855 5.01562 14.4958 5.08934 14.6171 5.13965C14.7384 5.18995 14.8685 5.21587 14.9998 5.21592C15.1312 5.21596 15.2613 5.19014 15.3826 5.13992C15.504 5.08969 15.6143 5.01606 15.7072 4.92321L18.0002 2.63321V21.3392L15.7072 19.0492C15.6143 18.9564 15.504 18.8827 15.3826 18.8325C15.2613 18.7823 15.1312 18.7565 14.9998 18.7565C14.8685 18.7566 14.7384 18.7825 14.6171 18.8328C14.4958 18.8831 14.3855 18.9568 14.2927 19.0497C14.1999 19.1426 14.1262 19.2529 14.076 19.3743C14.0258 19.4957 14 19.6257 14 19.7571C14 19.8884 14.026 20.0185 14.0763 20.1398C14.1266 20.2611 14.2003 20.3714 14.2932 20.4642L16.8802 23.0472C17.4427 23.609 18.2052 23.9246 19.0002 23.9246C19.7952 23.9246 20.5577 23.609 21.1202 23.0472L23.7072 20.4642C23.8001 20.3714 23.8738 20.2611 23.9241 20.1398C23.9744 20.0185 24.0003 19.8884 24.0004 19.7571C24.0004 19.6257 23.9746 19.4957 23.9244 19.3743C23.8742 19.2529 23.8005 19.1426 23.7077 19.0497C23.6148 18.9568 23.5046 18.8831 23.3833 18.8328C23.2619 18.7825 23.1319 18.7566 23.0005 18.7565C22.8692 18.7565 22.7391 18.7823 22.6178 18.8325C22.4964 18.8827 22.3861 18.9564 22.2932 19.0492Z" fill="#D3EEFF"/>
</g>
<defs>
<clipPath id="clip0_7940_3488">
<rect width="24" height="24" fill="white"/>
</clipPath>
</defs>
</svg>
